<svg width="700" height="756" viewBox="0 0 700 756" fill="none" xmlns="http://www.w3.org/2000/svg">
<g clip-path="url(#clip0_1288_12396)">
<path d="M668.904 246.317C663.008 244.049 656.692 242.513 651.28 239.405C555.893 184.636 460.602 129.702 365.406 74.6017C354.702 68.3932 345.841 68.3528 335.094 74.5876C239.725 129.919 144.218 185.015 48.5745 239.876C31.6392 249.622 13.4985 245.641 4.63384 230.584C-4.86402 214.453 0.530919 196.749 18.1374 186.596C123.36 125.921 228.585 65.2491 333.812 4.5814C345.749 -2.30605 356.983 -1.02573 368.603 5.73843C409.616 29.6126 450.809 53.1776 491.928 76.8697C555.544 113.524 619.154 150.185 682.76 186.855C696.352 194.695 702.596 208.404 698.997 222.101C695.529 235.305 683.089 244.96 668.904 246.317Z" fill="#FEFEFE"/>
<path d="M67.9236 295.976C67.5981 285.639 72.6928 278.484 81.3152 273.514C150.479 233.645 219.649 193.79 288.828 153.947C303.335 145.588 317.963 137.424 332.273 128.739C342.336 122.631 351.83 122.214 362.169 128.19C446.018 176.655 529.918 225.031 613.87 273.319C626.865 280.814 631.089 294.781 624.291 306.969C617.143 319.781 602.648 323.426 588.849 315.492C510.461 270.422 432.125 225.262 353.841 180.011C349.337 177.404 346.274 177.384 341.796 179.974C263.551 225.236 185.236 270.377 106.851 315.397C88.2228 326.112 68.1233 316.016 67.9236 295.976Z" fill="#FEFEFE"/>
<path d="M423.911 494.991C423.911 572.928 423.904 650.865 423.889 728.801C423.878 745.67 413.247 756.627 397.862 755.972C391.939 755.78 386.304 753.378 382.065 749.241C377.826 745.104 375.292 739.53 374.961 733.619C374.815 731.392 374.886 729.151 374.886 726.916C374.88 566.294 374.876 405.671 374.876 245.049C374.796 242.815 374.834 240.579 374.99 238.35C375.793 230.818 382.12 226.724 388.752 230.161C398.906 235.424 409.164 240.768 418.331 247.5C421.717 249.986 423.661 256.495 423.683 261.181C424.013 331.295 423.911 401.411 423.911 471.526C423.911 479.348 423.911 487.169 423.911 494.991Z" fill="#FEFEFE"/>
<path d="M325.313 442.797C325.309 508.696 325.296 574.595 325.274 640.494C325.248 659.387 309.876 670.892 292.764 665.159C283.207 661.958 276.762 653.088 276.34 642.147C276.114 636.292 276.281 630.421 276.281 624.557C276.28 504.208 276.219 383.859 276.098 263.51C276.077 254.438 278.948 248.84 287.022 244.987C293.803 241.751 300.124 237.552 306.655 233.792C318.727 226.84 325.298 230.487 325.304 244.263C325.333 310.441 325.336 376.619 325.313 442.797Z" fill="#FEFEFE"/>
<path d="M472.637 452.633C472.638 402.081 472.64 351.53 472.646 300.978C472.652 286.125 479.189 282.255 491.933 289.479C498.735 293.335 505.358 297.557 512.381 300.955C519.603 304.448 522.147 309.539 522.095 317.566C521.788 365.044 521.945 412.525 521.944 460.004C521.943 508.881 521.929 557.757 521.901 606.633C521.87 621.814 512.895 632.213 499.594 633.103C484.057 634.142 472.735 623.306 472.677 606.802C472.544 568.54 472.636 530.277 472.637 492.014C472.637 478.887 472.637 465.76 472.637 452.633Z" fill="#FEFEFE"/>
<path d="M227.553 424.685C227.552 466.282 227.542 507.878 227.523 549.474C227.502 561.246 221.66 570.281 212.069 574.085C202.215 577.993 193.386 576.04 185.718 569.032C179.738 563.566 178.179 556.398 178.197 548.505C178.302 500.767 178.32 453.029 178.248 405.291C178.25 376.257 178.424 347.222 178.15 318.19C178.082 310.969 180.1 306.064 186.859 302.729C194.601 298.91 201.895 294.187 209.403 289.89C220.567 283.501 227.525 287.616 227.539 300.733C227.582 342.05 227.586 383.368 227.553 424.685Z" fill="#FEFEFE"/>
</g>
<defs>
<clipPath id="clip0_1288_12396">
<rect width="700" height="756" fill="white"/>
</clipPath>
</defs>
</svg>
