<svg width="1920" height="1080" viewBox="0 0 1920 1080" fill="none" xmlns="http://www.w3.org/2000/svg">
<rect width="1920" height="1080" fill="#0D0F11"/>
<g clip-path="url(#clip0_1206_12210)">
<path d="M408.023 496.54C406.075 495.79 403.988 495.282 402.199 494.254C370.681 476.143 339.194 457.977 307.739 439.756C304.202 437.703 301.274 437.689 297.724 439.751C266.211 458.049 234.653 476.268 203.05 494.41C197.454 497.633 191.46 496.316 188.531 491.337C185.393 486.003 187.175 480.148 192.993 476.791C227.761 456.726 262.53 436.663 297.3 416.601C301.244 414.323 304.956 414.747 308.796 416.984C322.347 424.878 335.959 432.671 349.545 440.506C370.566 452.627 391.584 464.75 412.601 476.877C417.092 479.469 419.155 484.003 417.966 488.532C416.82 492.899 412.71 496.091 408.023 496.54Z" fill="#7565E6"/>
<path d="M209.444 512.962C209.336 509.543 211.02 507.177 213.869 505.534C236.722 492.35 259.578 479.17 282.436 465.995C287.23 463.23 292.063 460.531 296.791 457.659C300.117 455.639 303.254 455.501 306.67 457.477C334.376 473.504 362.098 489.501 389.838 505.47C394.132 507.948 395.528 512.567 393.281 516.597C390.92 520.834 386.13 522.039 381.571 519.416C355.669 504.511 329.785 489.577 303.918 474.614C302.43 473.751 301.418 473.745 299.938 474.601C274.084 489.569 248.207 504.496 222.306 519.384C216.151 522.928 209.51 519.589 209.444 512.962Z" fill="#7565E6"/>
<path d="M327.071 578.773C327.071 604.546 327.068 630.319 327.064 656.092C327.06 661.67 323.547 665.293 318.463 665.077C316.506 665.013 314.644 664.219 313.244 662.851C311.843 661.483 311.006 659.64 310.896 657.685C310.848 656.949 310.872 656.207 310.872 655.468C310.87 602.352 310.869 549.236 310.868 496.121C310.842 495.382 310.855 494.642 310.906 493.905C311.171 491.415 313.262 490.061 315.453 491.197C318.808 492.938 322.198 494.705 325.227 496.931C326.346 497.753 326.988 499.906 326.995 501.455C327.104 524.641 327.071 547.828 327.071 571.014C327.071 573.6 327.071 576.187 327.071 578.773Z" fill="#7565E6"/>
<path d="M294.492 561.514C294.49 583.306 294.486 605.098 294.479 626.89C294.47 633.138 289.391 636.942 283.736 635.046C280.579 633.987 278.449 631.054 278.31 627.436C278.235 625.5 278.29 623.559 278.29 621.62C278.29 581.822 278.27 542.024 278.23 502.226C278.223 499.226 279.171 497.374 281.839 496.1C284.08 495.03 286.169 493.642 288.327 492.398C292.315 490.099 294.487 491.305 294.489 495.861C294.498 517.745 294.499 539.629 294.492 561.514Z" fill="#7565E6"/>
<path d="M343.171 564.766C343.171 548.049 343.172 531.332 343.174 514.615C343.176 509.704 345.336 508.424 349.547 510.813C351.795 512.088 353.983 513.484 356.304 514.608C358.69 515.763 359.531 517.447 359.513 520.101C359.412 535.801 359.464 551.503 359.463 567.204C359.463 583.366 359.458 599.529 359.449 615.692C359.439 620.712 356.473 624.151 352.078 624.445C346.944 624.789 343.204 621.205 343.185 615.748C343.14 603.095 343.171 590.442 343.171 577.789C343.171 573.448 343.171 569.107 343.171 564.766Z" fill="#7565E6"/>
<path d="M262.189 555.525C262.189 569.28 262.186 583.035 262.179 596.791C262.172 600.684 260.242 603.671 257.073 604.929C253.817 606.222 250.9 605.576 248.366 603.258C246.39 601.451 245.875 599.08 245.881 596.47C245.916 580.684 245.921 564.898 245.898 549.111C245.898 539.51 245.956 529.908 245.865 520.308C245.843 517.92 246.509 516.298 248.743 515.195C251.301 513.932 253.711 512.37 256.192 510.95C259.881 508.837 262.18 510.197 262.184 514.535C262.199 528.198 262.2 541.861 262.189 555.525Z" fill="#7565E6"/>
</g>
<path d="M534.209 455H561.833L615.295 604.356H591.662L575.382 559.402H533.684L541.667 537.345H567.4L548.074 483.988L504.38 604.356H480.748L534.209 455Z" fill="#7565E6"/>
<path d="M641.028 455H663.189V515.498H674.218L733.456 455H764.021L691.758 528.837L768.537 604.356H737.553L669.702 537.66H663.189V604.356H641.028V455Z" fill="#7565E6"/>
<path d="M794.165 455H873.15C879.942 455 886.104 456.68 891.635 460.041C897.237 463.332 901.683 467.743 904.974 473.275C908.335 478.807 910.016 484.969 910.016 491.761V506.676C910.016 513.468 908.371 519.595 905.079 525.056C901.858 530.518 897.447 534.859 891.845 538.08C886.244 541.301 879.977 542.912 873.045 542.912L917.578 604.356H890.585L846.051 542.912H828.931V520.855H873.15C877.281 520.855 880.782 519.454 883.653 516.654C886.524 513.783 887.959 510.352 887.959 506.36V491.761C887.959 487.7 886.524 484.234 883.653 481.363C880.782 478.492 877.281 477.056 873.15 477.056H816.327V604.356H794.165V455Z" fill="#7565E6"/>
<path d="M945.412 497.013C945.412 489.24 947.408 482.203 951.399 475.901C955.46 469.529 960.852 464.452 967.574 460.671C974.296 456.89 981.753 455 989.946 455H1024.92C1033.11 455 1040.57 456.89 1047.29 460.671C1054.09 464.452 1059.48 469.529 1063.47 475.901C1067.46 482.203 1069.46 489.24 1069.46 497.013V562.343C1069.46 570.045 1067.46 577.082 1063.47 583.454C1059.48 589.826 1054.09 594.903 1047.29 598.684C1040.57 602.465 1033.11 604.356 1024.92 604.356H989.946C981.753 604.356 974.296 602.465 967.574 598.684C960.852 594.903 955.46 589.826 951.399 583.454C947.408 577.082 945.412 570.045 945.412 562.343V497.013ZM967.574 562.448C967.574 567.91 969.745 572.601 974.086 576.522C978.497 580.373 983.784 582.299 989.946 582.299H1024.92C1031.15 582.299 1036.44 580.373 1040.78 576.522C1045.12 572.601 1047.29 567.91 1047.29 562.448V496.908C1047.29 491.446 1045.12 486.789 1040.78 482.938C1036.44 479.017 1031.15 477.056 1024.92 477.056H989.946C983.784 477.056 978.497 479.017 974.086 482.938C969.745 486.789 967.574 491.446 967.574 496.908V562.448Z" fill="#7565E6"/>
<path d="M1105.69 455H1184.68C1191.47 455 1197.63 456.68 1203.16 460.041C1208.76 463.332 1213.21 467.743 1216.5 473.275C1219.86 478.807 1221.54 484.969 1221.54 491.761V506.676C1221.54 513.328 1219.86 519.419 1216.5 524.951C1213.21 530.413 1208.76 534.789 1203.16 538.08C1197.63 541.301 1191.47 542.912 1184.68 542.912H1140.46V520.855H1184.68C1188.81 520.855 1192.31 519.454 1195.18 516.654C1198.05 513.853 1199.49 510.422 1199.49 506.36V491.761C1199.49 487.7 1198.05 484.234 1195.18 481.363C1192.31 478.492 1188.81 477.056 1184.68 477.056H1127.85V604.356H1105.69V455Z" fill="#7565E6"/>
<path d="M1254 497.013C1254 489.24 1255.99 482.203 1259.98 475.901C1264.05 469.529 1269.44 464.452 1276.16 460.671C1282.88 456.89 1290.34 455 1298.53 455H1333.51C1341.7 455 1349.16 456.89 1355.88 460.671C1362.67 464.452 1368.06 469.529 1372.05 475.901C1376.05 482.203 1378.04 489.24 1378.04 497.013V562.343C1378.04 570.045 1376.05 577.082 1372.05 583.454C1368.06 589.826 1362.67 594.903 1355.88 598.684C1349.16 602.465 1341.7 604.356 1333.51 604.356H1298.53C1290.34 604.356 1282.88 602.465 1276.16 598.684C1269.44 594.903 1264.05 589.826 1259.98 583.454C1255.99 577.082 1254 570.045 1254 562.343V497.013ZM1276.16 562.448C1276.16 567.91 1278.33 572.601 1282.67 576.522C1287.08 580.373 1292.37 582.299 1298.53 582.299H1333.51C1339.74 582.299 1345.03 580.373 1349.37 576.522C1353.71 572.601 1355.88 567.91 1355.88 562.448V496.908C1355.88 491.446 1353.71 486.789 1349.37 482.938C1345.03 479.017 1339.74 477.056 1333.51 477.056H1298.53C1292.37 477.056 1287.08 479.017 1282.67 482.938C1278.33 486.789 1276.16 491.446 1276.16 496.908V562.448Z" fill="#7565E6"/>
<path d="M1414.28 455H1436.33V562.553C1436.33 568.015 1438.26 572.671 1442.11 576.522C1445.96 580.373 1450.58 582.299 1455.98 582.299H1530.02V604.356H1455.98C1448.34 604.356 1441.34 602.5 1434.97 598.789C1428.67 595.008 1423.63 589.966 1419.84 583.664C1416.13 577.292 1414.28 570.255 1414.28 562.553V455Z" fill="#7565E6"/>
<path d="M1555.65 455H1577.81V604.356H1555.65V455Z" fill="#7565E6"/>
<path d="M1611.95 491.131C1611.95 484.479 1613.59 478.422 1616.89 472.96C1620.25 467.498 1624.73 463.157 1630.33 459.936C1636 456.645 1642.23 455 1649.03 455H1726.33V477.056H1649.03C1644.96 477.056 1641.46 478.492 1638.52 481.363C1635.58 484.234 1634.11 487.7 1634.11 491.761V502.054C1634.11 505.765 1635.58 508.951 1638.52 511.612C1641.46 514.273 1644.96 515.603 1649.03 515.603H1696.6C1703.47 515.603 1709.7 517.249 1715.3 520.54C1720.9 523.761 1725.35 528.137 1728.64 533.669C1732 539.131 1733.68 545.187 1733.68 551.84V568.12C1733.68 574.772 1732 580.864 1728.64 586.395C1725.35 591.857 1720.9 596.233 1715.3 599.524C1709.7 602.745 1703.47 604.356 1696.6 604.356H1612.05V582.194H1696.6C1700.74 582.194 1704.24 580.829 1707.11 578.098C1710.05 575.297 1711.52 571.936 1711.52 568.015V551.945C1711.52 548.023 1710.05 544.662 1707.11 541.861C1704.24 539.061 1700.74 537.66 1696.6 537.66H1649.03C1642.23 537.66 1636 536.085 1630.33 532.934C1624.73 529.713 1620.25 525.406 1616.89 520.015C1613.59 514.623 1611.95 508.671 1611.95 502.159V491.131Z" fill="#7565E6"/>
<defs>
<clipPath id="clip0_1206_12210">
<rect width="231.298" height="250" fill="white" transform="translate(187 415.086)"/>
</clipPath>
</defs>
</svg>
