<svg width="1208" height="200" viewBox="0 0 1208 200" fill="none" xmlns="http://www.w3.org/2000/svg">
<g clip-path="url(#clip0_1356_13375)">
<path d="M176.818 65.1633C175.26 64.5634 173.59 64.1569 172.159 63.3347C146.945 48.8455 121.756 34.3126 96.5915 19.7359C93.7619 18.0934 91.4196 18.0828 88.5789 19.7322C63.3688 34.3702 38.1226 48.9458 12.8402 63.4592C8.36351 66.0376 3.56819 64.9843 1.22491 61.0012C-1.28575 56.7335 0.140343 52.05 4.79445 49.3641C32.609 33.3124 60.4241 17.2617 88.2399 1.21201C91.3954 -0.610067 94.3649 -0.271358 97.4366 1.5181C108.278 7.83401 119.167 14.0681 130.036 20.3359C146.852 30.0327 163.667 39.7316 180.481 49.4326C184.074 51.5065 185.724 55.1335 184.773 58.757C183.856 62.2501 180.568 64.8041 176.818 65.1633Z" fill="#FEFEFE"/>
<path d="M17.9551 78.3007C17.869 75.5659 19.2158 73.6731 21.495 72.3582C39.7776 61.811 58.0623 51.2672 76.3489 40.7268C80.1838 38.5154 84.0504 36.3556 87.833 34.058C90.4932 32.4422 93.0028 32.3317 95.736 33.9127C117.901 46.7342 140.079 59.5322 162.27 72.3068C165.706 74.2894 166.822 77.9845 165.025 81.2088C163.136 84.5983 159.304 85.5625 155.657 83.4636C134.935 71.5403 114.228 59.5931 93.5345 47.622C92.3438 46.9323 91.5342 46.927 90.3504 47.6123C69.6672 59.5863 48.9654 71.5283 28.2451 83.4383C23.3209 86.2732 18.0078 83.6023 17.9551 78.3007Z" fill="#FEFEFE"/>
<path d="M112.057 130.95C112.057 151.568 112.055 172.186 112.051 192.804C112.048 197.267 109.238 200.166 105.171 199.992C103.605 199.942 102.115 199.306 100.995 198.212C99.8746 197.117 99.2046 195.643 99.1171 194.079C99.0786 193.49 99.0973 192.897 99.0973 192.306C99.0956 149.813 99.0948 107.32 99.0948 64.8275C99.0736 64.2366 99.0836 63.6451 99.1249 63.0552C99.3371 61.0627 101.01 59.9796 102.763 60.889C105.447 62.2813 108.158 63.695 110.582 65.4761C111.477 66.1338 111.99 67.8556 111.996 69.0954C112.084 87.644 112.057 106.193 112.057 124.742C112.057 126.811 112.057 128.881 112.057 130.95Z" fill="#FEFEFE"/>
<path d="M85.992 117.142C85.9909 134.576 85.9874 152.009 85.9817 169.443C85.9749 174.441 81.9115 177.485 77.3879 175.968C74.8617 175.121 73.1581 172.775 73.0465 169.88C72.9867 168.331 73.031 166.778 73.0309 165.227C73.0306 133.388 73.0145 101.55 72.9825 69.7116C72.977 67.3117 73.7358 65.8306 75.8702 64.8113C77.6628 63.9553 79.3335 62.8445 81.06 61.8496C84.2511 60.0105 85.9881 60.9752 85.9897 64.6198C85.9974 82.1272 85.9981 99.6346 85.992 117.142Z" fill="#FEFEFE"/>
<path d="M124.936 119.744C124.936 106.37 124.937 92.9968 124.938 79.6233C124.94 75.6941 126.668 74.6701 130.037 76.5814C131.835 77.6014 133.586 78.7185 135.442 79.6172C137.351 80.5413 138.024 81.8884 138.01 84.0119C137.929 96.5721 137.97 109.133 137.97 121.694C137.97 134.624 137.966 147.554 137.959 160.484C137.95 164.501 135.578 167.252 132.062 167.487C127.955 167.762 124.962 164.895 124.947 160.529C124.912 150.407 124.936 140.284 124.936 130.162C124.936 126.689 124.936 123.217 124.936 119.744Z" fill="#FEFEFE"/>
<path d="M60.1515 112.351C60.1512 123.355 60.1485 134.36 60.1435 145.364C60.1378 148.478 58.5937 150.868 56.0584 151.875C53.4535 152.909 51.1198 152.392 49.0928 150.538C47.5119 149.092 47.0999 147.195 47.1045 145.108C47.1325 132.478 47.137 119.849 47.1181 107.22C47.1185 99.5392 47.1647 91.8579 47.0922 84.1777C47.0742 82.2674 47.6076 80.9696 49.3945 80.0874C51.441 79.0771 53.369 77.8276 55.3536 76.6909C58.3046 75.0006 60.144 76.0892 60.1476 79.5594C60.1589 90.4899 60.1602 101.42 60.1515 112.351Z" fill="#FEFEFE"/>
</g>
<path d="M248.189 40.2573H270.288L313.057 159.742H294.151L281.127 123.779H247.769L254.155 106.134H274.741L259.281 63.4485L224.326 159.742H205.42L248.189 40.2573Z" fill="#FEFEFE"/>
<path d="M333.644 40.2573H351.373V88.6563H360.196L407.587 40.2573H432.038L374.228 99.3276L435.651 159.742H410.864L356.583 106.386H351.373V159.742H333.644V40.2573Z" fill="#FEFEFE"/>
<path d="M456.154 40.2573H519.341C524.775 40.2573 529.704 41.6017 534.13 44.2906C538.611 46.9234 542.168 50.4525 544.801 54.8779C547.49 59.3032 548.834 64.2328 548.834 69.6664V81.5981C548.834 87.0318 547.518 91.9333 544.885 96.3027C542.308 100.672 538.779 104.145 534.298 106.722C529.816 109.299 524.803 110.587 519.257 110.587L554.884 159.742H533.29L497.663 110.587H483.966V92.9417H519.341C522.646 92.9417 525.447 91.8213 527.744 89.5806C530.041 87.2839 531.189 84.5391 531.189 81.3461V69.6664C531.189 66.4174 530.041 63.6446 527.744 61.3479C525.447 59.0512 522.646 57.9028 519.341 57.9028H473.883V159.742H456.154V40.2573Z" fill="#FEFEFE"/>
<path d="M577.151 73.8677C577.151 67.6498 578.748 62.0201 581.941 56.9785C585.19 51.8809 589.503 47.8197 594.881 44.7947C600.258 41.7698 606.224 40.2573 612.778 40.2573H640.759C647.313 40.2573 653.279 41.7698 658.656 44.7947C664.09 47.8197 668.403 51.8809 671.596 56.9785C674.789 62.0201 676.386 67.6498 676.386 73.8677V126.132C676.386 132.294 674.789 137.924 671.596 143.021C668.403 148.119 664.09 152.18 658.656 155.205C653.279 158.23 647.313 159.742 640.759 159.742H612.778C606.224 159.742 600.258 158.23 594.881 155.205C589.503 152.18 585.19 148.119 581.941 143.021C578.748 137.924 577.151 132.294 577.151 126.132V73.8677ZM594.881 126.216C594.881 130.585 596.617 134.338 600.09 137.475C603.619 140.556 607.849 142.097 612.778 142.097H640.759C645.744 142.097 649.974 140.556 653.447 137.475C656.92 134.338 658.656 130.585 658.656 126.216V73.7837C658.656 69.4144 656.92 65.6892 653.447 62.6083C649.974 59.4713 645.744 57.9028 640.759 57.9028H612.778C607.849 57.9028 603.619 59.4713 600.09 62.6083C596.617 65.6892 594.881 69.4144 594.881 73.7837V126.216Z" fill="#FEFEFE"/>
<path d="M705.375 40.2573H768.562C773.996 40.2573 778.926 41.6017 783.351 44.2906C787.833 46.9234 791.39 50.4525 794.022 54.8779C796.711 59.3032 798.056 64.2328 798.056 69.6664V81.5981C798.056 86.9198 796.711 91.7933 794.022 96.2187C791.39 100.588 787.833 104.089 783.351 106.722C778.926 109.299 773.996 110.587 768.562 110.587H733.188V92.9417H768.562C771.867 92.9417 774.668 91.8213 776.965 89.5806C779.262 87.3399 780.41 84.5951 780.41 81.3461V69.6664C780.41 66.4174 779.262 63.6446 776.965 61.3479C774.668 59.0512 771.867 57.9028 768.562 57.9028H723.104V159.742H705.375V40.2573Z" fill="#FEFEFE"/>
<path d="M824.02 73.8677C824.02 67.6498 825.616 62.0201 828.809 56.9785C832.058 51.8809 836.372 47.8197 841.749 44.7947C847.127 41.7698 853.093 40.2573 859.647 40.2573H887.627C894.181 40.2573 900.147 41.7698 905.525 44.7947C910.959 47.8197 915.272 51.8809 918.465 56.9785C921.658 62.0201 923.255 67.6498 923.255 73.8677V126.132C923.255 132.294 921.658 137.924 918.465 143.021C915.272 148.119 910.959 152.18 905.525 155.205C900.147 158.23 894.181 159.742 887.627 159.742H859.647C853.093 159.742 847.127 158.23 841.749 155.205C836.372 152.18 832.058 148.119 828.809 143.021C825.616 137.924 824.02 132.294 824.02 126.132V73.8677ZM841.749 126.216C841.749 130.585 843.486 134.338 846.959 137.475C850.488 140.556 854.717 142.097 859.647 142.097H887.627C892.613 142.097 896.842 140.556 900.315 137.475C903.788 134.338 905.525 130.585 905.525 126.216V73.7837C905.525 69.4144 903.788 65.6892 900.315 62.6083C896.842 59.4713 892.613 57.9028 887.627 57.9028H859.647C854.717 57.9028 850.488 59.4713 846.959 62.6083C843.486 65.6892 841.749 69.4144 841.749 73.7837V126.216Z" fill="#FEFEFE"/>
<path d="M952.243 40.2573H969.889V126.3C969.889 130.669 971.429 134.395 974.51 137.475C977.591 140.556 981.289 142.097 985.602 142.097H1044.84V159.742H985.602C979.496 159.742 973.894 158.258 968.797 155.289C963.755 152.264 959.722 148.231 956.697 143.189C953.728 138.092 952.243 132.462 952.243 126.3V40.2573Z" fill="#FEFEFE"/>
<path d="M1065.34 40.2573H1083.07V159.742H1065.34V40.2573Z" fill="#FEFEFE"/>
<path d="M1110.38 69.1623C1110.38 63.8406 1111.7 58.9951 1114.33 54.6258C1117.02 50.2564 1120.6 46.7833 1125.08 44.2065C1129.62 41.5737 1134.61 40.2573 1140.04 40.2573H1201.88V57.9028H1140.04C1136.79 57.9028 1133.99 59.0512 1131.64 61.3479C1129.29 63.6446 1128.11 66.4174 1128.11 69.6664V77.901C1128.11 80.8699 1129.29 83.4187 1131.64 85.5474C1133.99 87.676 1136.79 88.7404 1140.04 88.7404H1178.11C1183.6 88.7404 1188.58 90.0568 1193.06 92.6896C1197.54 95.2664 1201.1 98.7675 1203.73 103.193C1206.42 107.562 1207.77 112.408 1207.77 117.729V130.753C1207.77 136.075 1206.42 140.949 1203.73 145.374C1201.1 149.743 1197.54 153.244 1193.06 155.877C1188.58 158.454 1183.6 159.742 1178.11 159.742H1110.46V142.013H1178.11C1181.41 142.013 1184.21 140.921 1186.51 138.736C1188.86 136.495 1190.04 133.806 1190.04 130.669V117.813C1190.04 114.676 1188.86 111.988 1186.51 109.747C1184.21 107.506 1181.41 106.386 1178.11 106.386H1140.04C1134.61 106.386 1129.62 105.125 1125.08 102.605C1120.6 100.028 1117.02 96.5828 1114.33 92.2694C1111.7 87.9561 1110.38 83.1946 1110.38 77.985V69.1623Z" fill="#FEFEFE"/>
<defs>
<clipPath id="clip0_1356_13375">
<rect width="185.038" height="200" fill="white"/>
</clipPath>
</defs>
</svg>
