<svg width="16" height="17" viewBox="0 0 16 17" fill="none" xmlns="http://www.w3.org/2000/svg">
<path d="M8.23996 2.38672C6.58292 2.38854 4.99426 3.0476 3.82255 4.21931C2.65084 5.39102 1.99178 6.97967 1.98996 8.63672V13.8867C1.98996 14.1519 2.09532 14.4063 2.28285 14.5938C2.47039 14.7814 2.72474 14.8867 2.98996 14.8867H8.23996C9.89756 14.8867 11.4873 14.2282 12.6594 13.0561C13.8315 11.884 14.49 10.2943 14.49 8.63672C14.49 6.97912 13.8315 5.3894 12.6594 4.2173C11.4873 3.0452 9.89756 2.38672 8.23996 2.38672ZM8.23996 13.8867H2.98996V8.63672C2.98996 7.59837 3.29787 6.58333 3.87474 5.71997C4.45162 4.85662 5.27156 4.18371 6.23087 3.78635C7.19018 3.38899 8.24578 3.28502 9.26418 3.4876C10.2826 3.69017 11.218 4.19018 11.9523 4.92441C12.6865 5.65863 13.1865 6.59409 13.3891 7.61249C13.5917 8.63089 13.4877 9.68649 13.0903 10.6458C12.693 11.6051 12.0201 12.4251 11.1567 13.0019C10.2933 13.5788 9.27831 13.8867 8.23996 13.8867ZM8.98996 8.88672C8.98996 9.03505 8.94597 9.18006 8.86356 9.3034C8.78115 9.42673 8.66402 9.52286 8.52697 9.57963C8.38993 9.63639 8.23913 9.65125 8.09364 9.62231C7.94816 9.59337 7.81452 9.52194 7.70963 9.41705C7.60474 9.31216 7.53331 9.17852 7.50437 9.03304C7.47543 8.88755 7.49028 8.73675 7.54705 8.59971C7.60382 8.46266 7.69995 8.34553 7.82328 8.26312C7.94662 8.18071 8.09162 8.13672 8.23996 8.13672C8.43887 8.13672 8.62964 8.21574 8.77029 8.35639C8.91094 8.49704 8.98996 8.68781 8.98996 8.88672ZM6.23996 8.88672C6.23996 9.03505 6.19597 9.18006 6.11356 9.3034C6.03115 9.42673 5.91402 9.52286 5.77697 9.57963C5.63993 9.63639 5.48913 9.65125 5.34364 9.62231C5.19816 9.59337 5.06452 9.52194 4.95963 9.41705C4.85474 9.31216 4.78331 9.17852 4.75437 9.03304C4.72543 8.88755 4.74028 8.73675 4.79705 8.59971C4.85382 8.46266 4.94995 8.34553 5.07328 8.26312C5.19662 8.18071 5.34162 8.13672 5.48996 8.13672C5.68887 8.13672 5.87964 8.21574 6.02029 8.35639C6.16094 8.49704 6.23996 8.68781 6.23996 8.88672ZM11.74 8.88672C11.74 9.03505 11.696 9.18006 11.6136 9.3034C11.5312 9.42673 11.414 9.52286 11.277 9.57963C11.1399 9.63639 10.9891 9.65125 10.8436 9.62231C10.6982 9.59337 10.5645 9.52194 10.4596 9.41705C10.3547 9.31216 10.2833 9.17852 10.2544 9.03304C10.2254 8.88755 10.2403 8.73675 10.2971 8.59971C10.3538 8.46266 10.4499 8.34553 10.5733 8.26312C10.6966 8.18071 10.8416 8.13672 10.99 8.13672C11.1889 8.13672 11.3796 8.21574 11.5203 8.35639C11.6609 8.49704 11.74 8.68781 11.74 8.88672Z" fill="#FEFEFE"/>
</svg>
