<svg width="28" height="28" viewBox="0 0 28 28" fill="none" xmlns="http://www.w3.org/2000/svg">
<g clip-path="url(#clip0_1385_697)">
<path d="M3.83006 15.2012C2.95144 13.5598 2.69204 11.6572 3.09916 9.8405C3.50627 8.02377 4.55277 6.41388 6.04783 5.30437C7.5429 4.19487 9.38694 3.65966 11.2437 3.79635C13.1005 3.93304 14.8462 4.73251 16.1627 6.04898C17.4792 7.36546 18.2787 9.11125 18.4153 10.968C18.552 12.8248 18.0168 14.6688 16.9073 16.1639C15.7978 17.6589 14.1879 18.7054 12.3712 19.1125C10.5545 19.5197 8.65195 19.2603 7.01052 18.3816L4.01765 19.2614C3.86904 19.305 3.71141 19.3079 3.56134 19.2696C3.41126 19.2313 3.27427 19.1532 3.16475 19.0437C3.05522 18.9342 2.97721 18.7972 2.93891 18.6471C2.90061 18.497 2.90343 18.3394 2.94707 18.1908L3.83006 15.2012Z" stroke="#FEFEFE" stroke-width="1.725" stroke-linecap="round" stroke-linejoin="round"/>
<path d="M18.0007 8.95996C19.3047 9.03086 20.5698 9.4296 21.6787 10.1193C22.7877 10.809 23.7048 11.7673 24.345 12.9055C24.9852 14.0438 25.3279 15.3251 25.3414 16.631C25.3548 17.9369 25.0386 19.225 24.422 20.3762L25.3018 23.3691C25.3454 23.5177 25.3482 23.6753 25.3099 23.8254C25.2716 23.9755 25.1936 24.1125 25.0841 24.222C24.9746 24.3315 24.8376 24.4095 24.6875 24.4478C24.5374 24.4861 24.3798 24.4833 24.2312 24.4397L21.2415 23.5567C20.254 24.0848 19.1638 24.3932 18.0459 24.4606C16.928 24.5281 15.8088 24.353 14.7649 23.9473C13.721 23.5417 12.7771 22.9152 11.998 22.1106C11.2189 21.3061 10.623 20.3426 10.2511 19.2862" stroke="#FEFEFE" stroke-width="1.725" stroke-linecap="round" stroke-linejoin="round"/>
</g>
<defs>
<clipPath id="clip0_1385_697">
<rect width="27.6" height="27.6" fill="white" transform="translate(0.326141 0.322266)"/>
</clipPath>
</defs>
</svg>
