<svg width="16" height="17" viewBox="0 0 16 17" fill="none" xmlns="http://www.w3.org/2000/svg">
<path d="M14.3503 8.03336L8.3503 2.03336C8.30386 1.98687 8.24872 1.94999 8.18802 1.92483C8.12732 1.89967 8.06226 1.88672 7.99655 1.88672C7.93084 1.88672 7.86578 1.89967 7.80508 1.92483C7.74438 1.94999 7.68923 1.98687 7.6428 2.03336L1.6428 8.03336C1.57279 8.10329 1.52511 8.19242 1.50578 8.28946C1.48646 8.3865 1.49636 8.4871 1.53424 8.57851C1.57211 8.66992 1.63626 8.74804 1.71856 8.80297C1.80085 8.85791 1.8976 8.88719 1.99655 8.88711H4.49655V12.3871C4.49655 12.5197 4.54923 12.6469 4.643 12.7407C4.73676 12.8344 4.86394 12.8871 4.99655 12.8871H10.9965C11.1292 12.8871 11.2563 12.8344 11.3501 12.7407C11.4439 12.6469 11.4965 12.5197 11.4965 12.3871V8.88711H13.9965C14.0955 8.88719 14.1922 8.85791 14.2745 8.80297C14.3568 8.74804 14.421 8.66992 14.4589 8.57851C14.4967 8.4871 14.5066 8.3865 14.4873 8.28946C14.468 8.19242 14.4203 8.10329 14.3503 8.03336ZM10.9965 7.88711C10.8639 7.88711 10.7368 7.93979 10.643 8.03356C10.5492 8.12733 10.4965 8.2545 10.4965 8.38711V11.8871H5.49655V8.38711C5.49655 8.2545 5.44387 8.12733 5.3501 8.03356C5.25633 7.93979 5.12916 7.88711 4.99655 7.88711H3.20342L7.99655 3.09399L12.7897 7.88711H10.9965ZM11.4965 14.3871C11.4965 14.5197 11.4439 14.6469 11.3501 14.7407C11.2563 14.8344 11.1292 14.8871 10.9965 14.8871H4.99655C4.86394 14.8871 4.73676 14.8344 4.643 14.7407C4.54923 14.6469 4.49655 14.5197 4.49655 14.3871C4.49655 14.2545 4.54923 14.1273 4.643 14.0336C4.73676 13.9398 4.86394 13.8871 4.99655 13.8871H10.9965C11.1292 13.8871 11.2563 13.9398 11.3501 14.0336C11.4439 14.1273 11.4965 14.2545 11.4965 14.3871Z" fill="#FEFEFE"/>
</svg>
