<svg width="17" height="22" viewBox="0 0 17 22" fill="none" xmlns="http://www.w3.org/2000/svg">
<path d="M6.14495 5.81421C7.29755 4.0167 7.97996 2.35642 8.33542 1.18207C8.4719 0.732134 9.04782 0.548408 9.38978 0.870865C14.5438 5.73097 16.2289 9.44223 16.5641 13.7302C16.81 17.8779 14.7718 21.5689 9.29979 21.5689C4.16297 21.5689 0.370716 17.9836 0.885898 12.3001C1.19486 8.90456 2.51543 6.31665 3.57054 4.77635C3.899 4.29716 4.58366 4.29041 4.96236 4.73136L5.90649 5.83071C5.97173 5.90645 6.09096 5.8982 6.14495 5.81421Z" fill="url(#paint0_radial_270_5477)"/>
<path d="M6.14495 5.81421C7.29755 4.0167 7.97996 2.35642 8.33542 1.18207C8.4719 0.732134 9.04782 0.548408 9.38978 0.870865C14.5438 5.73097 16.2289 9.44223 16.5641 13.7302C16.81 17.8779 14.7718 21.5689 9.29979 21.5689C4.16297 21.5689 0.370716 17.9836 0.885898 12.3001C1.19486 8.90456 2.51543 6.31665 3.57054 4.77635C3.899 4.29716 4.58366 4.29041 4.96236 4.73136L5.90649 5.83071C5.97173 5.90645 6.09096 5.8982 6.14495 5.81421Z" fill="url(#paint1_radial_270_5477)"/>
<path d="M6.14495 5.81421C7.29755 4.0167 7.97996 2.35642 8.33542 1.18207C8.4719 0.732134 9.04782 0.548408 9.38978 0.870865C14.5438 5.73097 16.2289 9.44223 16.5641 13.7302C16.81 17.8779 14.7718 21.5689 9.29979 21.5689C4.16297 21.5689 0.370716 17.9836 0.885898 12.3001C1.19486 8.90456 2.51543 6.31665 3.57054 4.77635C3.899 4.29716 4.58366 4.29041 4.96236 4.73136L5.90649 5.83071C5.97173 5.90645 6.09096 5.8982 6.14495 5.81421Z" fill="url(#paint2_linear_270_5477)"/>
<path d="M6.14495 5.81421C7.29755 4.0167 7.97996 2.35642 8.33542 1.18207C8.4719 0.732134 9.04782 0.548408 9.38978 0.870865C14.5438 5.73097 16.2289 9.44223 16.5641 13.7302C16.81 17.8779 14.7718 21.5689 9.29979 21.5689C4.16297 21.5689 0.370716 17.9836 0.885898 12.3001C1.19486 8.90456 2.51543 6.31665 3.57054 4.77635C3.899 4.29716 4.58366 4.29041 4.96236 4.73136L5.90649 5.83071C5.97173 5.90645 6.09096 5.8982 6.14495 5.81421Z" fill="url(#paint3_radial_270_5477)"/>
<path d="M6.14495 5.81421C7.29755 4.0167 7.97996 2.35642 8.33542 1.18207C8.4719 0.732134 9.04782 0.548408 9.38978 0.870865C14.5438 5.73097 16.2289 9.44223 16.5641 13.7302C16.81 17.8779 14.7718 21.5689 9.29979 21.5689C4.16297 21.5689 0.370716 17.9836 0.885898 12.3001C1.19486 8.90456 2.51543 6.31665 3.57054 4.77635C3.899 4.29716 4.58366 4.29041 4.96236 4.73136L5.90649 5.83071C5.97173 5.90645 6.09096 5.8982 6.14495 5.81421Z" fill="url(#paint4_radial_270_5477)"/>
<path d="M6.14495 5.81421C7.29755 4.0167 7.97996 2.35642 8.33542 1.18207C8.4719 0.732134 9.04782 0.548408 9.38978 0.870865C14.5438 5.73097 16.2289 9.44223 16.5641 13.7302C16.81 17.8779 14.7718 21.5689 9.29979 21.5689C4.16297 21.5689 0.370716 17.9836 0.885898 12.3001C1.19486 8.90456 2.51543 6.31665 3.57054 4.77635C3.899 4.29716 4.58366 4.29041 4.96236 4.73136L5.90649 5.83071C5.97173 5.90645 6.09096 5.8982 6.14495 5.81421Z" fill="url(#paint5_radial_270_5477)"/>
<path d="M6.14495 5.81421C7.29755 4.0167 7.97996 2.35642 8.33542 1.18207C8.4719 0.732134 9.04782 0.548408 9.38978 0.870865C14.5438 5.73097 16.2289 9.44223 16.5641 13.7302C16.81 17.8779 14.7718 21.5689 9.29979 21.5689C4.16297 21.5689 0.370716 17.9836 0.885898 12.3001C1.19486 8.90456 2.51543 6.31665 3.57054 4.77635C3.899 4.29716 4.58366 4.29041 4.96236 4.73136L5.90649 5.83071C5.97173 5.90645 6.09096 5.8982 6.14495 5.81421Z" fill="url(#paint6_radial_270_5477)"/>
<path d="M6.14495 5.81421C7.29755 4.0167 7.97996 2.35642 8.33542 1.18207C8.4719 0.732134 9.04782 0.548408 9.38978 0.870865C14.5438 5.73097 16.2289 9.44223 16.5641 13.7302C16.81 17.8779 14.7718 21.5689 9.29979 21.5689C4.16297 21.5689 0.370716 17.9836 0.885898 12.3001C1.19486 8.90456 2.51543 6.31665 3.57054 4.77635C3.899 4.29716 4.58366 4.29041 4.96236 4.73136L5.90649 5.83071C5.97173 5.90645 6.09096 5.8982 6.14495 5.81421Z" fill="url(#paint7_radial_270_5477)"/>
<g filter="url(#filter0_i_270_5477)">
<path d="M4.36244 14.0199C5.33881 11.6953 7.3433 9.12384 8.69687 7.72828C8.88044 7.54049 9.1304 7.43229 9.39295 7.42696C9.6555 7.42163 9.90964 7.5196 10.1007 7.69978C12.6961 10.0912 13.4775 12.2532 14.1404 14.7698C14.8303 17.3885 14.1404 21.6074 8.95033 21.6074C4.48092 21.6074 2.93163 17.4245 4.36244 14.0199Z" fill="url(#paint8_radial_270_5477)"/>
<path d="M4.36244 14.0199C5.33881 11.6953 7.3433 9.12384 8.69687 7.72828C8.88044 7.54049 9.1304 7.43229 9.39295 7.42696C9.6555 7.42163 9.90964 7.5196 10.1007 7.69978C12.6961 10.0912 13.4775 12.2532 14.1404 14.7698C14.8303 17.3885 14.1404 21.6074 8.95033 21.6074C4.48092 21.6074 2.93163 17.4245 4.36244 14.0199Z" fill="url(#paint9_radial_270_5477)"/>
<path d="M4.36244 14.0199C5.33881 11.6953 7.3433 9.12384 8.69687 7.72828C8.88044 7.54049 9.1304 7.43229 9.39295 7.42696C9.6555 7.42163 9.90964 7.5196 10.1007 7.69978C12.6961 10.0912 13.4775 12.2532 14.1404 14.7698C14.8303 17.3885 14.1404 21.6074 8.95033 21.6074C4.48092 21.6074 2.93163 17.4245 4.36244 14.0199Z" fill="url(#paint10_radial_270_5477)"/>
</g>
<path d="M4.36244 14.0199C5.33881 11.6953 7.3433 9.12384 8.69687 7.72828C8.88044 7.54049 9.1304 7.43229 9.39295 7.42696C9.6555 7.42163 9.90964 7.5196 10.1007 7.69978C12.6961 10.0912 13.4775 12.2532 14.1404 14.7698C14.8303 17.3885 14.1404 21.6074 8.95033 21.6074C4.48092 21.6074 2.93163 17.4245 4.36244 14.0199Z" fill="url(#paint11_linear_270_5477)"/>
<path d="M4.36244 14.0199C5.33881 11.6953 7.3433 9.12384 8.69687 7.72828C8.88044 7.54049 9.1304 7.43229 9.39295 7.42696C9.6555 7.42163 9.90964 7.5196 10.1007 7.69978C12.6961 10.0912 13.4775 12.2532 14.1404 14.7698C14.8303 17.3885 14.1404 21.6074 8.95033 21.6074C4.48092 21.6074 2.93163 17.4245 4.36244 14.0199Z" fill="url(#paint12_radial_270_5477)"/>
<g filter="url(#filter1_f_270_5477)">
<path d="M5.58928 7.76661C7.3253 5.22445 8.34142 2.47381 8.65113 1.7959C8.19894 5.27094 6.88136 7.8161 4.40069 11.0932C2.41645 13.7148 2.058 15.9585 2.07524 16.5052C1.45508 12.3343 3.41832 10.9439 5.58928 7.76661Z" fill="url(#paint13_linear_270_5477)"/>
</g>
<g filter="url(#filter2_f_270_5477)">
<path d="M4.08948 5.01953C3.11461 6.22987 1.17686 9.58643 1.22486 13.3314C2.18473 9.49044 4.43068 8.2801 4.08948 5.01953Z" fill="url(#paint14_linear_270_5477)"/>
</g>
<defs>
<filter id="filter0_i_270_5477" x="3.84639" y="7.42676" width="10.7674" height="14.1807" filterUnits="userSpaceOnUse" color-interpolation-filters="sRGB">
<feFlood flood-opacity="0" result="BackgroundImageFix"/>
<feBlend mode="normal" in="SourceGraphic" in2="BackgroundImageFix" result="shape"/>
<feColorMatrix in="SourceAlpha" type="matrix" values="0 0 0 0 0 0 0 0 0 0 0 0 0 0 0 0 0 0 127 0" result="hardAlpha"/>
<feOffset dx="0.249967"/>
<feGaussianBlur stdDeviation="0.124983"/>
<feComposite in2="hardAlpha" operator="arithmetic" k2="-1" k3="1"/>
<feColorMatrix type="matrix" values="0 0 0 0 0.952941 0 0 0 0 0.615686 0 0 0 0 0.364706 0 0 0 1 0"/>
<feBlend mode="normal" in2="shape" result="effect1_innerShadow_270_5477"/>
</filter>
<filter id="filter1_f_270_5477" x="1.33418" y="1.17098" width="7.94187" height="15.9588" filterUnits="userSpaceOnUse" color-interpolation-filters="sRGB">
<feFlood flood-opacity="0" result="BackgroundImageFix"/>
<feBlend mode="normal" in="SourceGraphic" in2="BackgroundImageFix" result="shape"/>
<feGaussianBlur stdDeviation="0.312459" result="effect1_foregroundBlur_270_5477"/>
</filter>
<filter id="filter2_f_270_5477" x="0.474079" y="4.26963" width="4.40025" height="9.81133" filterUnits="userSpaceOnUse" color-interpolation-filters="sRGB">
<feFlood flood-opacity="0" result="BackgroundImageFix"/>
<feBlend mode="normal" in="SourceGraphic" in2="BackgroundImageFix" result="shape"/>
<feGaussianBlur stdDeviation="0.37495" result="effect1_foregroundBlur_270_5477"/>
</filter>
<radialGradient id="paint0_radial_270_5477" cx="0" cy="0" r="1" gradientUnits="userSpaceOnUse" gradientTransform="translate(14.7287 13.902) rotate(-179.474) scale(12.8224 19.337)">
<stop stop-color="#FF953D"/>
<stop offset="1" stop-color="#FF5141"/>
</radialGradient>
<radialGradient id="paint1_radial_270_5477" cx="0" cy="0" r="1" gradientUnits="userSpaceOnUse" gradientTransform="translate(4.50809 10.8529) rotate(-157.937) scale(7.75705 13.3854)">
<stop stop-color="#CE5327"/>
<stop offset="1" stop-color="#CE5327" stop-opacity="0"/>
</radialGradient>
<linearGradient id="paint2_linear_270_5477" x1="10.4801" y1="21.5689" x2="10.4801" y2="17.7459" gradientUnits="userSpaceOnUse">
<stop stop-color="#FF7583"/>
<stop offset="1" stop-color="#FF7583" stop-opacity="0"/>
</linearGradient>
<radialGradient id="paint3_radial_270_5477" cx="0" cy="0" r="1" gradientUnits="userSpaceOnUse" gradientTransform="translate(0.447615 9.90611) rotate(24.015) scale(2.32818 19.2718)">
<stop stop-color="#FFAA7B"/>
<stop offset="1" stop-color="#FFAA7B" stop-opacity="0"/>
</radialGradient>
<radialGradient id="paint4_radial_270_5477" cx="0" cy="0" r="1" gradientUnits="userSpaceOnUse" gradientTransform="translate(3.71153 3.80073) rotate(77.3197) scale(2.87988 3.59343)">
<stop stop-color="#FF5E47"/>
<stop offset="1" stop-color="#FF5E47" stop-opacity="0"/>
</radialGradient>
<radialGradient id="paint5_radial_270_5477" cx="0" cy="0" r="1" gradientUnits="userSpaceOnUse" gradientTransform="translate(9.05007 0.138212) rotate(87.8819) scale(7.60204 7.03648)">
<stop stop-color="#FF2F3C"/>
<stop offset="1" stop-color="#FF2F3C" stop-opacity="0"/>
</radialGradient>
<radialGradient id="paint6_radial_270_5477" cx="0" cy="0" r="1" gradientUnits="userSpaceOnUse" gradientTransform="translate(7.15357 2.71337) rotate(25.3283) scale(1.72398 3.45968)">
<stop stop-color="#FF846C"/>
<stop offset="1" stop-color="#FF846C" stop-opacity="0"/>
</radialGradient>
<radialGradient id="paint7_radial_270_5477" cx="0" cy="0" r="1" gradientUnits="userSpaceOnUse" gradientTransform="translate(6.07221 5.27054) rotate(113.224) scale(1.70855 0.391528)">
<stop stop-color="#FFA682"/>
<stop offset="1" stop-color="#FFA682" stop-opacity="0"/>
</radialGradient>
<radialGradient id="paint8_radial_270_5477" cx="0" cy="0" r="1" gradientUnits="userSpaceOnUse" gradientTransform="translate(12.6308 17.394) rotate(-168.558) scale(7.52083 9.36559)">
<stop stop-color="#FFDA2F"/>
<stop offset="1" stop-color="#FF8E41"/>
</radialGradient>
<radialGradient id="paint9_radial_270_5477" cx="0" cy="0" r="1" gradientUnits="userSpaceOnUse" gradientTransform="translate(6.02872 5.55731) rotate(69.044) scale(10.6055 9.21471)">
<stop stop-color="#FD5639"/>
<stop offset="1" stop-color="#FE5533" stop-opacity="0"/>
</radialGradient>
<radialGradient id="paint10_radial_270_5477" cx="0" cy="0" r="1" gradientUnits="userSpaceOnUse" gradientTransform="translate(11.1573 14.5839) rotate(174.239) scale(7.34802 17.9912)">
<stop offset="0.628" stop-color="#D7812D" stop-opacity="0"/>
<stop offset="1" stop-color="#D7812D"/>
</radialGradient>
<linearGradient id="paint11_linear_270_5477" x1="9.10556" y1="7.07211" x2="9.10556" y2="9.807" gradientUnits="userSpaceOnUse">
<stop stop-color="#F95131"/>
<stop offset="1" stop-color="#F95131" stop-opacity="0"/>
</linearGradient>
<radialGradient id="paint12_radial_270_5477" cx="0" cy="0" r="1" gradientUnits="userSpaceOnUse" gradientTransform="translate(13.9671 13.2146) rotate(143.063) scale(12.0394 8.7119)">
<stop offset="0.772" stop-color="#F18A52" stop-opacity="0"/>
<stop offset="1" stop-color="#F18A52"/>
</radialGradient>
<linearGradient id="paint13_linear_270_5477" x1="7.97547" y1="2.30433" x2="2.47044" y2="16.1603" gradientUnits="userSpaceOnUse">
<stop stop-color="#FF7558"/>
<stop offset="1" stop-color="#F38758"/>
</linearGradient>
<linearGradient id="paint14_linear_270_5477" x1="3.88475" y1="5.222" x2="0.915897" y2="13.7221" gradientUnits="userSpaceOnUse">
<stop stop-color="#FF815B"/>
<stop offset="1" stop-color="#FF9C6D"/>
</linearGradient>
</defs>
</svg>
