<svg width="50" height="50" viewBox="0 0 50 50" fill="none" xmlns="http://www.w3.org/2000/svg">
<rect width="50" height="50" rx="7.47945" fill="url(#paint0_linear_422_11016)"/>
<path d="M20.5102 13.7551H23.2653V16.5102H20.5102V13.7551ZM23.2653 13.7551H26.0204V16.5102H23.2653V13.7551ZM23.2653 11H26.0204V13.7551H23.2653V11ZM26.0204 13.7551H28.7755V16.5102H26.0204V13.7551ZM26.0204 16.5102H28.7755V19.2653H26.0204V16.5102ZM28.7755 16.5102H31.5306V19.2653H28.7755V16.5102ZM23.2653 16.5102H26.0204V19.2653H23.2653V16.5102ZM20.5102 16.5102H23.2653V19.2653H20.5102V16.5102ZM17.7551 16.5102H20.5102V19.2653H17.7551V16.5102ZM17.7551 19.2653H20.5102V22.0204H17.7551V19.2653ZM15 19.2653H17.7551V22.0204H15V19.2653ZM20.5102 19.2653H23.2653V22.0204H20.5102V19.2653ZM17.7551 22.0204H20.5102V24.7755H17.7551V22.0204ZM17.7551 24.7755H20.5102V27.5306H17.7551V24.7755ZM17.7551 27.5306H20.5102V30.2857H17.7551V27.5306ZM20.5102 27.5306H23.2653V30.2857H20.5102V27.5306ZM23.2653 27.5306H26.0204V30.2857H23.2653V27.5306ZM26.0204 27.5306H28.7755V30.2857H26.0204V27.5306ZM28.7755 27.5306H31.5306V30.2857H28.7755V27.5306ZM31.5306 27.5306H34.2857V30.2857H31.5306V27.5306ZM31.5306 24.7755H34.2857V27.5306H31.5306V24.7755ZM31.5306 22.0204H34.2857V24.7755H31.5306V22.0204ZM31.5306 19.2653H34.2857V22.0204H31.5306V19.2653ZM28.7755 19.2653H31.5306V22.0204H28.7755V19.2653ZM26.0204 19.2653H28.7755V22.0204H26.0204V19.2653ZM28.7755 22.0204H31.5306V24.7755H28.7755V22.0204ZM28.7755 24.7755H31.5306V27.5306H28.7755V24.7755ZM28.7755 30.2857H31.5306V33.0408H28.7755V30.2857ZM31.5306 30.2857H34.2857V33.0408H31.5306V30.2857ZM31.5306 33.0408H34.2857V35.7959H31.5306V33.0408ZM31.5306 35.7959H34.2857V38.551H31.5306V35.7959ZM28.7755 35.7959H31.5306V38.551H28.7755V35.7959ZM28.7755 33.0408H31.5306V35.7959H28.7755V33.0408ZM26.0204 30.2857H28.7755V33.0408H26.0204V30.2857ZM23.2653 30.2857H26.0204V33.0408H23.2653V30.2857ZM20.5102 30.2857H23.2653V33.0408H20.5102V30.2857ZM17.7551 30.2857H20.5102V33.0408H17.7551V30.2857ZM17.7551 33.0408H20.5102V35.7959H17.7551V33.0408ZM17.7551 35.7959H20.5102V38.551H17.7551V35.7959ZM15 35.7959H17.7551V38.551H15V35.7959ZM15 33.0408H17.7551V35.7959H15V33.0408ZM15 30.2857H17.7551V33.0408H15V30.2857ZM15 27.5306H17.7551V30.2857H15V27.5306ZM15 24.7755H17.7551V27.5306H15V24.7755ZM15 22.0204H17.7551V24.7755H15V22.0204Z" fill="#FEFEFE"/>
<defs>
<linearGradient id="paint0_linear_422_11016" x1="3.20513" y1="3.20513" x2="20.5091" y2="24.362" gradientUnits="userSpaceOnUse">
<stop stop-color="#FFB951"/>
<stop offset="1" stop-color="#7A78FF"/>
</linearGradient>
</defs>
</svg>
