<svg width="17" height="17" viewBox="0 0 17 17" fill="none" xmlns="http://www.w3.org/2000/svg">
<path d="M14.486 6.88705C14.4865 5.96018 14.2528 5.0482 13.8066 4.23582C13.3603 3.42344 12.716 2.73701 11.9335 2.24029C11.1509 1.74356 10.2556 1.45266 9.33052 1.39459C8.40546 1.33653 7.48074 1.51319 6.64223 1.90816C5.80373 2.30313 5.07864 2.9036 4.53431 3.65381C3.98999 4.40401 3.64408 5.27961 3.52873 6.19928C3.41337 7.11894 3.5323 8.05285 3.87448 8.91425C4.21666 9.77565 4.77098 10.5366 5.48596 11.1264V15.8871C5.4859 15.9723 5.50765 16.0562 5.54914 16.1307C5.59063 16.2052 5.65048 16.2678 5.72301 16.3127C5.79554 16.3575 5.87833 16.3831 5.96352 16.3869C6.04871 16.3907 6.13346 16.3727 6.20971 16.3346L8.98596 14.9496L11.7628 16.3377C11.8325 16.371 11.9088 16.3879 11.986 16.3871C12.1186 16.3871 12.2457 16.3344 12.3395 16.2406C12.4333 16.1468 12.486 16.0197 12.486 15.8871V11.1264C13.1115 10.6112 13.6153 9.96387 13.9611 9.2309C14.3069 8.49793 14.4861 7.6975 14.486 6.88705ZM4.48596 6.88705C4.48596 5.99704 4.74988 5.12701 5.24435 4.38699C5.73882 3.64697 6.44162 3.07019 7.26389 2.7296C8.08615 2.389 8.99095 2.29989 9.86387 2.47352C10.7368 2.64715 11.5386 3.07574 12.1679 3.70507C12.7973 4.33441 13.2259 5.13623 13.3995 6.00915C13.5731 6.88206 13.484 7.78686 13.1434 8.60913C12.8028 9.4314 12.226 10.1342 11.486 10.6287C10.746 11.1231 9.87598 11.3871 8.98596 11.3871C7.79289 11.3857 6.64907 10.9112 5.80544 10.0676C4.96182 9.22395 4.48729 8.08012 4.48596 6.88705ZM11.486 15.0783L9.20909 13.9402C9.13962 13.9054 9.06301 13.8873 8.98534 13.8873C8.90766 13.8873 8.83105 13.9054 8.76159 13.9402L6.48596 15.0783V11.7852C7.25994 12.1808 8.11675 12.387 8.98596 12.387C9.85518 12.387 10.712 12.1808 11.486 11.7852V15.0783ZM8.98596 10.3871C9.6782 10.3871 10.3549 10.1818 10.9305 9.7972C11.506 9.41261 11.9546 8.86599 12.2195 8.22645C12.4844 7.58691 12.5538 6.88317 12.4187 6.20424C12.2837 5.52531 11.9503 4.90167 11.4608 4.41218C10.9714 3.9227 10.3477 3.58935 9.66878 3.45431C8.98985 3.31926 8.28611 3.38857 7.64657 3.65348C7.00703 3.91838 6.4604 4.36699 6.07582 4.94256C5.69123 5.51813 5.48596 6.19482 5.48596 6.88705C5.48696 7.81501 5.85602 8.70467 6.51219 9.36083C7.16835 10.017 8.05801 10.3861 8.98596 10.3871ZM8.98596 4.38706C9.48042 4.38706 9.96377 4.53368 10.3749 4.80838C10.786 5.08308 11.1064 5.47353 11.2957 5.93035C11.4849 6.38716 11.5344 6.88983 11.4379 7.37478C11.3415 7.85973 11.1034 8.30519 10.7537 8.65482C10.4041 9.00445 9.95864 9.24256 9.47369 9.33902C8.98874 9.43548 8.48607 9.38597 8.02925 9.19675C7.57244 9.00753 7.18199 8.6871 6.90729 8.27598C6.63259 7.86486 6.48596 7.38151 6.48596 6.88705C6.48596 6.22401 6.74935 5.58813 7.2182 5.11929C7.68704 4.65045 8.32292 4.38706 8.98596 4.38706Z" fill="#FEFEFE"/>
</svg>
