<svg width="21" height="21" viewBox="0 0 21 21" fill="none" xmlns="http://www.w3.org/2000/svg">
<path d="M14.5235 10.9834C14.5235 11.1492 14.4577 11.3081 14.3404 11.4253C14.2232 11.5426 14.0643 11.6084 13.8985 11.6084H7.6485C7.48274 11.6084 7.32377 11.5426 7.20656 11.4253C7.08935 11.3081 7.0235 11.1492 7.0235 10.9834C7.0235 10.8176 7.08935 10.6587 7.20656 10.5415C7.32377 10.4242 7.48274 10.3584 7.6485 10.3584H13.8985C14.0643 10.3584 14.2232 10.4242 14.3404 10.5415C14.4577 10.6587 14.5235 10.8176 14.5235 10.9834ZM18.8985 10.9834C18.8985 12.5904 18.422 14.1613 17.5292 15.4974C16.6364 16.8336 15.3675 17.875 13.8828 18.4899C12.3982 19.1049 10.7645 19.2658 9.18839 18.9523C7.6123 18.6388 6.16456 17.8649 5.02826 16.7286C3.89196 15.5923 3.11813 14.1446 2.80462 12.5685C2.49112 10.9924 2.65202 9.35875 3.26698 7.8741C3.88194 6.38945 4.92334 5.12049 6.25949 4.22771C7.59564 3.33492 9.16653 2.8584 10.7735 2.8584C12.9277 2.86067 14.993 3.71743 16.5162 5.24067C18.0395 6.76391 18.8962 8.82921 18.8985 10.9834ZM17.6485 10.9834C17.6485 9.62365 17.2453 8.29444 16.4899 7.16385C15.7344 6.03327 14.6607 5.15208 13.4045 4.63173C12.1482 4.11137 10.7659 3.97523 9.43226 4.2405C8.09864 4.50577 6.87363 5.16055 5.91214 6.12204C4.95066 7.08353 4.29588 8.30853 4.0306 9.64215C3.76533 10.9758 3.90148 12.3581 4.42183 13.6143C4.94218 14.8706 5.82337 15.9443 6.95396 16.6998C8.08454 17.4552 9.41376 17.8584 10.7735 17.8584C12.5962 17.8563 14.3437 17.1313 15.6326 15.8425C16.9214 14.5536 17.6464 12.8061 17.6485 10.9834Z" fill="#FF8E00"/>
</svg>
