<svg width="18" height="19" viewBox="0 0 18 19" fill="none" xmlns="http://www.w3.org/2000/svg">
<path d="M15.7437 9.86133V15.1106C15.7437 15.9062 15.4277 16.6691 14.8651 17.2317C14.3026 17.7942 13.5396 18.1102 12.7441 18.1102H5.24507C4.44953 18.1102 3.68657 17.7942 3.12403 17.2317C2.5615 16.6691 2.24547 15.9062 2.24547 15.1106V9.86133H15.7437Z" fill="url(#paint0_linear_270_5468)"/>
<path d="M15.7437 4.61133C16.1415 4.61133 16.5229 4.76934 16.8042 5.05061C17.0855 5.33188 17.2435 5.71336 17.2435 6.11113V9.11073C17.2435 9.50851 17.0855 9.88999 16.8042 10.1713C16.5229 10.4525 16.1415 10.6105 15.7437 10.6105H2.24547C1.8477 10.6105 1.46622 10.4525 1.18495 10.1713C0.903681 9.88999 0.745667 9.50851 0.745667 9.11073V6.11113C0.745667 5.71336 0.903681 5.33188 1.18495 5.05061C1.46622 4.76934 1.8477 4.61133 2.24547 4.61133H15.7437Z" fill="url(#paint1_radial_270_5468)"/>
<path fill-rule="evenodd" clip-rule="evenodd" d="M9.74448 9.86133V18.1102H8.24467V9.86133H9.74448Z" fill="url(#paint2_linear_270_5468)"/>
<path fill-rule="evenodd" clip-rule="evenodd" d="M9.74467 4.61133V10.6113H8.24467V4.61133H9.74467Z" fill="url(#paint3_linear_270_5468)"/>
<path fill-rule="evenodd" clip-rule="evenodd" d="M6.74488 6.11151C6.24365 6.11149 5.75043 5.98586 5.31026 5.74611C4.8701 5.50637 4.49702 5.16014 4.22513 4.73907C3.95324 4.31801 3.79119 3.83552 3.7538 3.33569C3.7164 2.83586 3.80486 2.33463 4.01107 1.8778C4.21729 1.42096 4.53469 1.02308 4.93429 0.72051C5.33388 0.417939 5.80293 0.220324 6.29857 0.145719C6.79421 0.0711147 7.30064 0.121899 7.7716 0.293433C8.24256 0.464967 8.66302 0.751781 8.99458 1.12767C9.32614 0.751781 9.74661 0.464967 10.2176 0.293433C10.6885 0.121899 11.195 0.0711147 11.6906 0.145719C12.1862 0.220324 12.6553 0.417939 13.0549 0.72051C13.4545 1.02308 13.7719 1.42096 13.9781 1.8778C14.1843 2.33463 14.2728 2.83586 14.2354 3.33569C14.198 3.83552 14.0359 4.31801 13.764 4.73907C13.4921 5.16014 13.1191 5.50637 12.6789 5.74611C12.2387 5.98586 11.7455 6.11149 11.2443 6.11151H6.74488ZM5.24508 3.11191C5.24508 2.71414 5.40309 2.33266 5.68436 2.05139C5.96563 1.77012 6.34711 1.61211 6.74488 1.61211C7.14265 1.61211 7.52413 1.77012 7.8054 2.05139C8.08667 2.33266 8.24468 2.71414 8.24468 3.11191V4.61171H6.74488C6.34711 4.61171 5.96563 4.4537 5.68436 4.17243C5.40309 3.89116 5.24508 3.50968 5.24508 3.11191ZM9.74448 4.61171H11.2443C11.5409 4.61171 11.8309 4.52375 12.0775 4.35895C12.3242 4.19415 12.5164 3.95991 12.6299 3.68586C12.7434 3.41181 12.7731 3.11025 12.7153 2.81931C12.6574 2.52838 12.5146 2.26114 12.3048 2.05139C12.0951 1.84164 11.8278 1.6988 11.5369 1.64093C11.2459 1.58306 10.9444 1.61276 10.6703 1.72627C10.3963 1.83979 10.162 2.03202 9.99724 2.27866C9.83244 2.52531 9.74448 2.81528 9.74448 3.11191V4.61171Z" fill="url(#paint4_linear_270_5468)"/>
<defs>
<linearGradient id="paint0_linear_270_5468" x1="8.13369" y1="21.3513" x2="8.13369" y2="6.64875" gradientUnits="userSpaceOnUse">
<stop stop-color="#BB45EA"/>
<stop offset="0.348" stop-color="#8B57ED"/>
<stop offset="1" stop-color="#5B2AB5"/>
</linearGradient>
<radialGradient id="paint1_radial_270_5468" cx="0" cy="0" r="1" gradientUnits="userSpaceOnUse" gradientTransform="translate(8.99458 2.36162) scale(21.2483 9.37376)">
<stop offset="0.196" stop-color="#5B2AB5"/>
<stop offset="0.763" stop-color="#8B57ED"/>
<stop offset="1" stop-color="#BB45EA"/>
</radialGradient>
<linearGradient id="paint2_linear_270_5468" x1="8.99458" y1="5.22094" x2="8.99458" y2="16.6749" gradientUnits="userSpaceOnUse">
<stop stop-color="#FB5937"/>
<stop offset="1" stop-color="#FFCD0F"/>
</linearGradient>
<linearGradient id="paint3_linear_270_5468" x1="8.99467" y1="-21.1032" x2="8.99467" y2="20.8968" gradientUnits="userSpaceOnUse">
<stop stop-color="#FB5937"/>
<stop offset="1" stop-color="#FFCD0F"/>
</linearGradient>
<linearGradient id="paint4_linear_270_5468" x1="11.9102" y1="6.11001" x2="8.8461" y2="-6.24086" gradientUnits="userSpaceOnUse">
<stop stop-color="#FF6F47"/>
<stop offset="1" stop-color="#FFCD0F"/>
</linearGradient>
</defs>
</svg>
