<svg width="17" height="17" viewBox="0 0 17 17" fill="none" xmlns="http://www.w3.org/2000/svg">
<path d="M15.8074 7.53239L10.8074 2.53239C10.7376 2.46242 10.6485 2.41475 10.5515 2.3954C10.4545 2.37606 10.354 2.38591 10.2626 2.42371C10.1712 2.4615 10.0931 2.52555 10.0381 2.60776C9.98311 2.68996 9.95374 2.78662 9.9537 2.88551V5.40739C8.33245 5.54614 6.54182 6.33989 5.0687 7.58926C3.29495 9.09426 2.19057 11.0336 1.9587 13.0499C1.94058 13.2066 1.97236 13.3651 2.04952 13.5028C2.12669 13.6404 2.2453 13.7502 2.38848 13.8165C2.53166 13.8829 2.69212 13.9023 2.84701 13.8722C3.0019 13.8421 3.14334 13.7638 3.2512 13.6486C3.9387 12.9168 6.38495 10.6024 9.9537 10.3986V12.8855C9.95374 12.9844 9.98311 13.0811 10.0381 13.1633C10.0931 13.2455 10.1712 13.3095 10.2626 13.3473C10.354 13.3851 10.4545 13.395 10.5515 13.3756C10.6485 13.3563 10.7376 13.3086 10.8074 13.2386L15.8074 8.23864C15.901 8.1449 15.9535 8.01791 15.9535 7.88551C15.9535 7.75311 15.901 7.62612 15.8074 7.53239ZM10.9537 11.6786V9.88551C10.9537 9.7529 10.901 9.62573 10.8073 9.53196C10.7135 9.43819 10.5863 9.38551 10.4537 9.38551C8.6987 9.38551 6.98932 9.84364 5.37307 10.748C4.54991 11.2107 3.78295 11.7668 3.08745 12.4055C3.44995 10.9155 4.3637 9.49864 5.71557 8.35176C7.16682 7.12114 8.93807 6.38551 10.4537 6.38551C10.5863 6.38551 10.7135 6.33283 10.8073 6.23906C10.901 6.1453 10.9537 6.01812 10.9537 5.88551V4.09301L14.7468 7.88551L10.9537 11.6786Z" fill="#FEFEFE"/>
</svg>
