<svg width="393" height="852" viewBox="0 0 393 852" fill="none" xmlns="http://www.w3.org/2000/svg">
<g clip-path="url(#clip0_16_4247)">
<rect width="393" height="852" fill="#0D0F11"/>
<rect opacity="0.4" x="-304" y="135.024" width="1091.4" height="545.698" fill="url(#paint0_radial_16_4247)"/>
<mask id="mask0_16_4247" style="mask-type:alpha" maskUnits="userSpaceOnUse" x="-271" y="13" width="842" height="827">
<rect x="70.2982" y="13" width="644.747" height="540.493" transform="rotate(39.1308 70.2982 13)" fill="url(#paint1_radial_16_4247)"/>
</mask>
<g mask="url(#mask0_16_4247)">
</g>
<g clip-path="url(#clip1_16_4247)">
<g opacity="0.7">
<path d="M36.2278 461.12C36.4661 461.146 36.6801 460.974 36.7058 460.735C36.7315 460.497 36.5591 460.283 36.3207 460.257C36.0824 460.232 35.8684 460.404 35.8427 460.642C35.8171 460.881 35.9895 461.095 36.2278 461.12Z" fill="white"/>
<path d="M85.7955 442.875C86.0338 442.9 86.2478 442.728 86.2735 442.49C86.2991 442.251 86.1268 442.037 85.8884 442.012C85.6501 441.986 85.4361 442.158 85.4104 442.397C85.3847 442.635 85.5571 442.849 85.7955 442.875Z" fill="white"/>
<path d="M99.2407 476.206C99.479 476.232 99.693 476.06 99.7187 475.821C99.7443 475.583 99.572 475.369 99.3336 475.343C99.0953 475.318 98.8813 475.49 98.8556 475.728C98.8299 475.967 99.0023 476.181 99.2407 476.206Z" fill="white"/>
<path opacity="0.11" d="M22.9266 471.039C23.1649 471.065 23.3789 470.892 23.4046 470.654C23.4303 470.415 23.2579 470.201 23.0196 470.176C22.7813 470.15 22.5673 470.322 22.5416 470.561C22.5159 470.799 22.6883 471.013 22.9266 471.039Z" fill="white"/>
<path opacity="0.3" d="M101.721 445.028C101.959 445.054 102.173 444.882 102.199 444.643C102.224 444.405 102.052 444.191 101.814 444.165C101.575 444.14 101.361 444.312 101.336 444.55C101.31 444.789 101.482 445.003 101.721 445.028Z" fill="white"/>
<path opacity="0.11" d="M34.1189 419.837C34.3573 419.863 34.5713 419.69 34.5969 419.452C34.6226 419.214 34.4502 419 34.2119 418.974C33.9736 418.948 33.7596 419.121 33.7339 419.359C33.7082 419.598 33.8806 419.812 34.1189 419.837Z" fill="white"/>
<path opacity="0.11" d="M88.0641 462.335C88.3024 462.36 88.5164 462.188 88.5421 461.95C88.5678 461.711 88.3954 461.497 88.1571 461.472C87.9187 461.446 87.7047 461.618 87.679 461.857C87.6534 462.095 87.8258 462.309 88.0641 462.335Z" fill="white"/>
<path opacity="0.11" d="M5.28554 444.247C5.76259 444.298 6.19097 443.953 6.24237 443.476C6.29376 442.999 5.9487 442.571 5.47165 442.519C4.99459 442.468 4.56619 442.813 4.51479 443.29C4.4634 443.767 4.80848 444.196 5.28554 444.247Z" fill="white"/>
<path d="M6.69816 429.115C7.05585 429.154 7.37706 428.895 7.41559 428.537C7.45413 428.18 7.19539 427.858 6.8377 427.82C6.48001 427.781 6.15882 428.04 6.12029 428.398C6.08176 428.755 6.34047 429.077 6.69816 429.115Z" fill="white"/>
<path d="M114.429 495.313C114.786 495.351 115.107 495.092 115.146 494.735C115.185 494.377 114.926 494.056 114.568 494.017C114.21 493.979 113.889 494.238 113.851 494.595C113.812 494.953 114.071 495.274 114.429 495.313Z" fill="white"/>
<path d="M13.2812 489.658C13.6389 489.697 13.9601 489.438 13.9986 489.08C14.0372 488.722 13.7784 488.401 13.4207 488.363C13.063 488.324 12.7418 488.583 12.7033 488.941C12.6648 489.298 12.9235 489.619 13.2812 489.658Z" fill="white"/>
<path d="M130.849 472.623C131.207 472.662 131.528 472.403 131.567 472.045C131.605 471.688 131.346 471.366 130.989 471.328C130.631 471.289 130.31 471.548 130.271 471.906C130.233 472.263 130.491 472.585 130.849 472.623Z" fill="white"/>
<path d="M143.768 449.995C144.125 450.034 144.447 449.775 144.485 449.417C144.524 449.06 144.265 448.739 143.907 448.7C143.55 448.662 143.228 448.92 143.19 449.278C143.151 449.636 143.41 449.957 143.768 449.995Z" fill="white"/>
<path opacity="0.3" d="M42.2722 433.386C42.7493 433.437 43.1777 433.092 43.2291 432.615C43.2805 432.138 42.9354 431.709 42.4583 431.658C41.9813 431.607 41.5529 431.952 41.5015 432.429C41.4501 432.906 41.7952 433.334 42.2722 433.386Z" fill="white"/>
<path d="M45.5716 402.729C46.0487 402.78 46.477 402.435 46.5284 401.958C46.5798 401.481 46.2348 401.053 45.7577 401.001C45.2807 400.95 44.8523 401.295 44.8009 401.772C44.7495 402.249 45.0946 402.677 45.5716 402.729Z" fill="white"/>
<path d="M63.4813 445.277C63.839 445.315 64.1602 445.057 64.1988 444.699C64.2373 444.341 63.9786 444.02 63.6209 443.982C63.2632 443.943 62.942 444.202 62.9034 444.559C62.8649 444.917 63.1236 445.238 63.4813 445.277Z" fill="white"/>
<path opacity="0.3" d="M86.2381 430.696C86.7152 430.747 87.1435 430.402 87.1949 429.925C87.2463 429.448 86.9013 429.02 86.4242 428.968C85.9472 428.917 85.5188 429.262 85.4674 429.739C85.416 430.216 85.7611 430.645 86.2381 430.696Z" fill="white"/>
<path opacity="0.3" d="M125.673 465.952C126.151 466.003 126.579 465.658 126.63 465.181C126.682 464.704 126.337 464.276 125.86 464.224C125.383 464.173 124.954 464.518 124.903 464.995C124.851 465.472 125.196 465.901 125.673 465.952Z" fill="white"/>
<path opacity="0.3" d="M75.0683 461.373C75.5454 461.425 75.9737 461.079 76.0251 460.602C76.0765 460.125 75.7315 459.697 75.2544 459.646C74.7774 459.594 74.349 459.939 74.2976 460.416C74.2462 460.893 74.5913 461.322 75.0683 461.373Z" fill="white"/>
<path opacity="0.11" d="M109.37 451.096C109.847 451.147 110.275 450.802 110.327 450.325C110.378 449.848 110.033 449.42 109.556 449.368C109.079 449.317 108.651 449.662 108.599 450.139C108.548 450.616 108.893 451.044 109.37 451.096Z" fill="white"/>
<path opacity="0.11" d="M108.724 318.526C109.201 318.578 109.629 318.233 109.681 317.756C109.732 317.278 109.387 316.85 108.91 316.799C108.433 316.747 108.005 317.092 107.953 317.569C107.902 318.046 108.247 318.475 108.724 318.526Z" fill="white"/>
<path d="M111.017 323.577C111.374 323.615 111.696 323.357 111.734 322.999C111.773 322.641 111.514 322.32 111.156 322.282C110.799 322.243 110.477 322.502 110.439 322.859C110.4 323.217 110.659 323.538 111.017 323.577Z" fill="white"/>
<path d="M126.24 316.046C126.598 316.085 126.919 315.826 126.957 315.468C126.996 315.111 126.737 314.789 126.379 314.751C126.022 314.712 125.701 314.971 125.662 315.329C125.623 315.687 125.882 316.008 126.24 316.046Z" fill="white"/>
<path d="M89.6358 311.228C89.9935 311.266 90.3147 311.007 90.3532 310.65C90.3917 310.292 90.133 309.971 89.7753 309.932C89.4177 309.894 89.0964 310.153 89.0579 310.51C89.0194 310.868 89.2781 311.189 89.6358 311.228Z" fill="white"/>
<path opacity="0.11" d="M67.1483 319.286C67.6254 319.337 68.0538 318.992 68.1052 318.515C68.1566 318.038 67.8115 317.61 67.3344 317.558C66.8574 317.507 66.429 317.852 66.3776 318.329C66.3262 318.806 66.6713 319.234 67.1483 319.286Z" fill="white"/>
<path d="M59.9719 308.906C60.2102 308.932 60.4242 308.76 60.4499 308.521C60.4755 308.283 60.3032 308.069 60.0648 308.043C59.8265 308.018 59.6125 308.19 59.5868 308.428C59.5611 308.667 59.7335 308.881 59.9719 308.906Z" fill="white"/>
<path d="M105.612 335.223C105.85 335.249 106.065 335.076 106.09 334.838C106.116 334.6 105.943 334.386 105.705 334.36C105.467 334.334 105.253 334.507 105.227 334.745C105.201 334.983 105.374 335.197 105.612 335.223Z" fill="white"/>
<path d="M199.731 345.365C199.969 345.391 200.183 345.219 200.209 344.98C200.235 344.742 200.062 344.528 199.824 344.502C199.586 344.477 199.372 344.649 199.346 344.887C199.32 345.126 199.493 345.34 199.731 345.365Z" fill="white"/>
<path d="M249.299 327.12C249.537 327.145 249.751 326.973 249.777 326.734C249.802 326.496 249.63 326.282 249.392 326.256C249.153 326.231 248.939 326.403 248.914 326.642C248.888 326.88 249.06 327.094 249.299 327.12Z" fill="white"/>
<path d="M262.739 360.451C262.978 360.477 263.192 360.305 263.217 360.066C263.243 359.828 263.071 359.614 262.832 359.588C262.594 359.562 262.38 359.735 262.354 359.973C262.329 360.212 262.501 360.426 262.739 360.451Z" fill="white"/>
<path opacity="0.11" d="M55.4796 314.097C55.7179 314.123 55.9319 313.951 55.9576 313.712C55.9833 313.474 55.8109 313.26 55.5726 313.234C55.3342 313.209 55.1202 313.381 55.0946 313.619C55.0689 313.858 55.2413 314.072 55.4796 314.097Z" fill="white"/>
<path opacity="0.11" d="M103.076 350.673C103.314 350.699 103.528 350.527 103.554 350.288C103.579 350.05 103.407 349.836 103.169 349.81C102.93 349.785 102.716 349.957 102.691 350.195C102.665 350.434 102.837 350.648 103.076 350.673Z" fill="white"/>
<path opacity="0.11" d="M186.432 355.286C186.67 355.312 186.884 355.139 186.91 354.901C186.936 354.663 186.763 354.449 186.525 354.423C186.287 354.397 186.073 354.57 186.047 354.808C186.021 355.046 186.194 355.26 186.432 355.286Z" fill="white"/>
<path d="M85.8404 287.671C86.0788 287.696 86.2928 287.524 86.3184 287.286C86.3441 287.047 86.1717 286.833 85.9334 286.808C85.6951 286.782 85.4811 286.954 85.4554 287.193C85.4297 287.431 85.6021 287.645 85.8404 287.671Z" fill="white"/>
<path d="M152.418 293.971C152.657 293.997 152.871 293.825 152.896 293.586C152.922 293.348 152.75 293.134 152.511 293.108C152.273 293.083 152.059 293.255 152.033 293.493C152.008 293.732 152.18 293.946 152.418 293.971Z" fill="white"/>
<path d="M52.2049 324.229C52.4433 324.254 52.6573 324.082 52.683 323.844C52.7086 323.605 52.5362 323.391 52.2979 323.366C52.0596 323.34 51.8456 323.512 51.8199 323.751C51.7942 323.989 51.9666 324.203 52.2049 324.229Z" fill="white"/>
<path opacity="0.3" d="M21.9836 320.972C22.2219 320.998 22.4359 320.825 22.4616 320.587C22.4873 320.349 22.3149 320.135 22.0765 320.109C21.8382 320.083 21.6242 320.256 21.5985 320.494C21.5729 320.732 21.7452 320.946 21.9836 320.972Z" fill="white"/>
<path opacity="0.3" d="M92.5 298.872C92.7384 298.898 92.9524 298.725 92.978 298.487C93.0037 298.249 92.8314 298.035 92.593 298.009C92.3547 297.983 92.1407 298.156 92.115 298.394C92.0893 298.632 92.2617 298.846 92.5 298.872Z" fill="white"/>
<path opacity="0.3" d="M58.6642 333.224C58.9026 333.25 59.1166 333.078 59.1423 332.839C59.1679 332.601 58.9955 332.387 58.7572 332.361C58.5189 332.336 58.3049 332.508 58.2792 332.746C58.2535 332.985 58.4259 333.199 58.6642 333.224Z" fill="white"/>
<path opacity="0.3" d="M5.95915 331.912C6.19747 331.938 6.41149 331.765 6.43716 331.527C6.46284 331.289 6.29045 331.075 6.05212 331.049C5.8138 331.023 5.59979 331.196 5.57412 331.434C5.54844 331.673 5.72082 331.887 5.95915 331.912Z" fill="white"/>
<path opacity="0.3" d="M265.224 329.273C265.462 329.299 265.676 329.127 265.702 328.888C265.728 328.65 265.555 328.436 265.317 328.41C265.079 328.385 264.865 328.557 264.839 328.795C264.813 329.034 264.986 329.248 265.224 329.273Z" fill="white"/>
<path opacity="0.11" d="M197.624 304.082C197.863 304.108 198.077 303.935 198.102 303.697C198.128 303.459 197.956 303.245 197.717 303.219C197.479 303.193 197.265 303.366 197.239 303.604C197.214 303.842 197.386 304.057 197.624 304.082Z" fill="white"/>
<path opacity="0.11" d="M251.569 346.58C251.808 346.605 252.022 346.433 252.047 346.194C252.073 345.956 251.901 345.742 251.662 345.716C251.424 345.691 251.21 345.863 251.184 346.102C251.159 346.34 251.331 346.554 251.569 346.58Z" fill="white"/>
<path opacity="0.3" d="M141.921 338.699C142.398 338.75 142.826 338.405 142.878 337.928C142.929 337.451 142.584 337.022 142.107 336.971C141.63 336.92 141.201 337.265 141.15 337.742C141.099 338.219 141.444 338.647 141.921 338.699Z" fill="white"/>
<path opacity="0.11" d="M168.791 328.491C169.268 328.542 169.696 328.197 169.748 327.72C169.799 327.243 169.454 326.815 168.977 326.763C168.5 326.712 168.072 327.057 168.02 327.534C167.969 328.011 168.314 328.439 168.791 328.491Z" fill="white"/>
<path d="M170.203 313.359C170.561 313.398 170.882 313.139 170.921 312.781C170.959 312.423 170.701 312.102 170.343 312.064C169.985 312.025 169.664 312.284 169.626 312.642C169.587 312.999 169.846 313.32 170.203 313.359Z" fill="white"/>
<path d="M135.533 355.481C135.89 355.519 136.212 355.26 136.25 354.903C136.289 354.545 136.03 354.224 135.672 354.185C135.315 354.147 134.993 354.405 134.955 354.763C134.916 355.121 135.175 355.442 135.533 355.481Z" fill="white"/>
<path d="M277.934 379.557C278.292 379.595 278.613 379.336 278.651 378.979C278.69 378.621 278.431 378.3 278.074 378.261C277.716 378.223 277.395 378.481 277.356 378.839C277.318 379.197 277.576 379.518 277.934 379.557Z" fill="white"/>
<path d="M148.555 319.762C148.912 319.801 149.234 319.542 149.272 319.184C149.311 318.826 149.052 318.505 148.694 318.467C148.337 318.428 148.015 318.687 147.977 319.045C147.938 319.402 148.197 319.724 148.555 319.762Z" fill="white"/>
<path d="M69.9901 343.614C70.3478 343.653 70.669 343.394 70.7075 343.036C70.7461 342.679 70.4873 342.357 70.1297 342.319C69.772 342.28 69.4508 342.539 69.4122 342.897C69.3737 343.254 69.6324 343.576 69.9901 343.614Z" fill="white"/>
<path d="M176.784 373.9C177.142 373.938 177.463 373.679 177.502 373.322C177.54 372.964 177.282 372.643 176.924 372.604C176.566 372.566 176.245 372.824 176.206 373.182C176.168 373.54 176.427 373.861 176.784 373.9Z" fill="white"/>
<path d="M294.354 356.867C294.712 356.905 295.033 356.647 295.072 356.289C295.11 355.931 294.852 355.61 294.494 355.572C294.136 355.533 293.815 355.792 293.777 356.149C293.738 356.507 293.997 356.828 294.354 356.867Z" fill="white"/>
<path d="M307.273 334.24C307.631 334.279 307.952 334.02 307.99 333.662C308.029 333.305 307.77 332.984 307.413 332.945C307.055 332.906 306.734 333.165 306.695 333.523C306.657 333.881 306.915 334.202 307.273 334.24Z" fill="white"/>
<path opacity="0.3" d="M205.78 317.627C206.257 317.679 206.685 317.333 206.737 316.856C206.788 316.379 206.443 315.951 205.966 315.9C205.489 315.848 205.06 316.193 205.009 316.67C204.958 317.147 205.303 317.576 205.78 317.627Z" fill="white"/>
<path d="M209.077 286.974C209.554 287.025 209.982 286.68 210.034 286.203C210.085 285.726 209.74 285.298 209.263 285.246C208.786 285.195 208.358 285.54 208.306 286.017C208.255 286.494 208.6 286.922 209.077 286.974Z" fill="white"/>
<path d="M226.984 329.521C227.342 329.559 227.663 329.301 227.702 328.943C227.74 328.585 227.482 328.264 227.124 328.225C226.766 328.187 226.445 328.446 226.407 328.803C226.368 329.161 226.627 329.482 226.984 329.521Z" fill="white"/>
<path opacity="0.3" d="M249.741 314.94C250.218 314.991 250.647 314.646 250.698 314.169C250.749 313.692 250.404 313.264 249.927 313.212C249.45 313.161 249.022 313.506 248.97 313.983C248.919 314.46 249.264 314.888 249.741 314.94Z" fill="white"/>
<path opacity="0.3" d="M289.179 350.196C289.656 350.247 290.084 349.902 290.136 349.425C290.187 348.948 289.842 348.52 289.365 348.468C288.888 348.417 288.459 348.762 288.408 349.239C288.357 349.716 288.702 350.144 289.179 350.196Z" fill="white"/>
<path opacity="0.3" d="M238.571 345.617C239.048 345.668 239.477 345.323 239.528 344.846C239.58 344.369 239.235 343.941 238.757 343.889C238.28 343.838 237.852 344.183 237.801 344.66C237.749 345.137 238.094 345.566 238.571 345.617Z" fill="white"/>
<path opacity="0.11" d="M272.875 335.339C273.352 335.391 273.781 335.046 273.832 334.569C273.884 334.092 273.538 333.663 273.061 333.612C272.584 333.561 272.156 333.906 272.105 334.383C272.053 334.86 272.398 335.288 272.875 335.339Z" fill="white"/>
<path opacity="0.3" d="M20.8734 290.719C21.3504 290.77 21.7788 290.425 21.8302 289.948C21.8816 289.471 21.5365 289.043 21.0595 288.991C20.5824 288.94 20.154 289.285 20.1026 289.762C20.0512 290.239 20.3963 290.667 20.8734 290.719Z" fill="white"/>
<path opacity="0.11" d="M10.1491 280.826C10.6262 280.877 11.0545 280.532 11.1059 280.055C11.1573 279.578 10.8123 279.15 10.3352 279.099C9.85816 279.047 9.42977 279.392 9.37838 279.869C9.32698 280.346 9.67204 280.775 10.1491 280.826Z" fill="white"/>
<path opacity="0.3" d="M3.72137 308.089C4.19843 308.14 4.62682 307.795 4.67822 307.318C4.72961 306.841 4.38454 306.413 3.90749 306.361C3.43043 306.31 3.00204 306.655 2.95064 307.132C2.89925 307.609 3.24432 308.038 3.72137 308.089Z" fill="white"/>
<path d="M30.7483 310.561C31.106 310.6 31.4272 310.341 31.4657 309.984C31.5043 309.626 31.2455 309.305 30.8878 309.266C30.5301 309.228 30.2089 309.486 30.1704 309.844C30.1319 310.202 30.3906 310.523 30.7483 310.561Z" fill="white"/>
<path opacity="0.11" d="M328.452 410.628C328.929 410.68 329.358 410.335 329.409 409.858C329.46 409.381 329.115 408.952 328.638 408.901C328.161 408.849 327.733 409.194 327.681 409.672C327.63 410.149 327.975 410.577 328.452 410.628Z" fill="white"/>
<path d="M330.745 415.678C331.102 415.716 331.424 415.458 331.462 415.1C331.501 414.742 331.242 414.421 330.884 414.383C330.527 414.344 330.205 414.603 330.167 414.96C330.128 415.318 330.387 415.639 330.745 415.678Z" fill="white"/>
<path d="M345.97 408.15C346.328 408.188 346.649 407.929 346.688 407.572C346.726 407.214 346.467 406.893 346.11 406.854C345.752 406.816 345.431 407.074 345.392 407.432C345.354 407.79 345.613 408.111 345.97 408.15Z" fill="white"/>
<path d="M309.366 403.33C309.724 403.368 310.045 403.11 310.084 402.752C310.122 402.394 309.863 402.073 309.506 402.035C309.148 401.996 308.827 402.255 308.788 402.612C308.75 402.97 309.008 403.291 309.366 403.33Z" fill="white"/>
<path opacity="0.11" d="M286.876 411.387C287.353 411.438 287.782 411.093 287.833 410.616C287.885 410.139 287.54 409.711 287.063 409.659C286.585 409.608 286.157 409.953 286.106 410.43C286.054 410.907 286.399 411.335 286.876 411.387Z" fill="white"/>
<path d="M279.7 401.007C279.938 401.033 280.152 400.861 280.178 400.622C280.204 400.384 280.031 400.17 279.793 400.144C279.555 400.119 279.341 400.291 279.315 400.529C279.289 400.768 279.462 400.982 279.7 401.007Z" fill="white"/>
<path d="M325.338 427.322C325.576 427.347 325.79 427.175 325.816 426.937C325.842 426.698 325.669 426.484 325.431 426.459C325.193 426.433 324.979 426.605 324.953 426.844C324.927 427.082 325.1 427.296 325.338 427.322Z" fill="white"/>
<path d="M182.736 401.041C182.975 401.067 183.189 400.894 183.214 400.656C183.24 400.418 183.068 400.204 182.829 400.178C182.591 400.152 182.377 400.325 182.351 400.563C182.326 400.801 182.498 401.015 182.736 401.041Z" fill="white"/>
<path opacity="0.11" d="M178.775 377.032C179.014 377.057 179.228 376.885 179.253 376.647C179.279 376.408 179.107 376.194 178.868 376.168C178.63 376.143 178.416 376.315 178.39 376.554C178.365 376.792 178.537 377.006 178.775 377.032Z" fill="white"/>
<path opacity="0.11" d="M159.143 384.964C159.382 384.99 159.596 384.817 159.621 384.579C159.647 384.341 159.474 384.126 159.236 384.101C158.998 384.075 158.784 384.248 158.758 384.486C158.732 384.724 158.905 384.938 159.143 384.964Z" fill="white"/>
<path opacity="0.11" d="M170.599 412.401C170.837 412.427 171.051 412.254 171.077 412.016C171.103 411.778 170.93 411.564 170.692 411.538C170.453 411.512 170.239 411.685 170.214 411.923C170.188 412.161 170.361 412.375 170.599 412.401Z" fill="white"/>
<path opacity="0.11" d="M275.205 406.197C275.444 406.223 275.658 406.051 275.683 405.812C275.709 405.574 275.537 405.36 275.298 405.334C275.06 405.309 274.846 405.481 274.82 405.719C274.795 405.958 274.967 406.172 275.205 406.197Z" fill="white"/>
<path opacity="0.11" d="M322.802 442.773C323.04 442.799 323.254 442.627 323.28 442.388C323.305 442.15 323.133 441.936 322.895 441.91C322.656 441.885 322.442 442.057 322.417 442.295C322.391 442.534 322.563 442.748 322.802 442.773Z" fill="white"/>
<path opacity="0.3" d="M203.762 392.39C204 392.415 204.214 392.243 204.24 392.005C204.265 391.766 204.093 391.552 203.855 391.527C203.616 391.501 203.402 391.673 203.377 391.912C203.351 392.15 203.523 392.364 203.762 392.39Z" fill="white"/>
<path d="M305.566 379.772C305.805 379.797 306.019 379.625 306.044 379.387C306.07 379.148 305.898 378.934 305.659 378.909C305.421 378.883 305.207 379.055 305.181 379.294C305.156 379.532 305.328 379.746 305.566 379.772Z" fill="white"/>
<path d="M372.149 386.075C372.387 386.1 372.601 385.928 372.627 385.689C372.652 385.451 372.48 385.237 372.242 385.211C372.003 385.186 371.789 385.358 371.764 385.597C371.738 385.835 371.91 386.049 372.149 386.075Z" fill="white"/>
<path d="M271.931 416.33C272.169 416.355 272.383 416.183 272.409 415.945C272.434 415.706 272.262 415.492 272.024 415.467C271.785 415.441 271.571 415.613 271.546 415.852C271.52 416.09 271.692 416.304 271.931 416.33Z" fill="white"/>
<path opacity="0.3" d="M241.712 413.073C241.95 413.099 242.164 412.926 242.19 412.688C242.215 412.45 242.043 412.236 241.805 412.21C241.566 412.184 241.352 412.357 241.327 412.595C241.301 412.833 241.473 413.047 241.712 413.073Z" fill="white"/>
<path opacity="0.11" d="M209.199 382.495C209.438 382.521 209.652 382.348 209.677 382.11C209.703 381.872 209.531 381.658 209.292 381.632C209.054 381.606 208.84 381.779 208.814 382.017C208.789 382.255 208.961 382.469 209.199 382.495Z" fill="white"/>
<path opacity="0.3" d="M312.226 390.972C312.464 390.998 312.678 390.825 312.704 390.587C312.73 390.349 312.557 390.135 312.319 390.109C312.081 390.083 311.867 390.256 311.841 390.494C311.815 390.732 311.988 390.946 312.226 390.972Z" fill="white"/>
<path opacity="0.3" d="M278.39 425.324C278.628 425.35 278.842 425.178 278.868 424.939C278.894 424.701 278.721 424.487 278.483 424.461C278.245 424.436 278.031 424.608 278.005 424.846C277.979 425.085 278.152 425.299 278.39 425.324Z" fill="white"/>
<path opacity="0.3" d="M225.685 424.011C225.923 424.037 226.137 423.864 226.163 423.626C226.189 423.388 226.016 423.174 225.778 423.148C225.54 423.122 225.326 423.295 225.3 423.533C225.274 423.771 225.447 423.985 225.685 424.011Z" fill="white"/>
<path opacity="0.3" d="M216.28 393.738C216.518 393.764 216.732 393.591 216.758 393.353C216.783 393.115 216.611 392.901 216.373 392.875C216.134 392.849 215.92 393.022 215.895 393.26C215.869 393.498 216.041 393.712 216.28 393.738Z" fill="white"/>
<path opacity="0.3" d="M361.651 430.801C362.128 430.852 362.557 430.507 362.608 430.03C362.659 429.553 362.314 429.125 361.837 429.073C361.36 429.022 360.932 429.367 360.88 429.844C360.829 430.321 361.174 430.749 361.651 430.801Z" fill="white"/>
<path opacity="0.11" d="M388.519 420.593C388.996 420.644 389.424 420.299 389.476 419.822C389.527 419.345 389.182 418.917 388.705 418.865C388.228 418.814 387.8 419.159 387.748 419.636C387.697 420.113 388.042 420.542 388.519 420.593Z" fill="white"/>
<path d="M389.932 405.461C390.289 405.5 390.61 405.241 390.649 404.883C390.688 404.526 390.429 404.204 390.071 404.166C389.713 404.127 389.392 404.386 389.354 404.744C389.315 405.101 389.574 405.423 389.932 405.461Z" fill="white"/>
<path d="M355.261 447.583C355.618 447.621 355.94 447.362 355.978 447.005C356.017 446.647 355.758 446.326 355.4 446.287C355.043 446.249 354.721 446.508 354.683 446.865C354.644 447.223 354.903 447.544 355.261 447.583Z" fill="white"/>
<path d="M218.261 434.131C218.619 434.169 218.94 433.911 218.978 433.553C219.017 433.195 218.758 432.874 218.401 432.835C218.043 432.797 217.722 433.056 217.683 433.413C217.645 433.771 217.903 434.092 218.261 434.131Z" fill="white"/>
<path d="M161.914 418.019C162.272 418.057 162.593 417.798 162.632 417.441C162.67 417.083 162.412 416.762 162.054 416.723C161.696 416.685 161.375 416.943 161.337 417.301C161.298 417.659 161.557 417.98 161.914 418.019Z" fill="white"/>
<path d="M156.434 399.957C156.792 399.996 157.113 399.737 157.152 399.379C157.19 399.022 156.931 398.701 156.574 398.662C156.216 398.623 155.895 398.882 155.856 399.24C155.818 399.598 156.077 399.919 156.434 399.957Z" fill="white"/>
<path d="M368.278 411.862C368.636 411.9 368.957 411.642 368.996 411.284C369.034 410.926 368.776 410.605 368.418 410.567C368.06 410.528 367.739 410.787 367.7 411.145C367.662 411.502 367.921 411.823 368.278 411.862Z" fill="white"/>
<path d="M289.718 435.716C290.076 435.755 290.397 435.496 290.436 435.138C290.474 434.781 290.215 434.459 289.858 434.421C289.5 434.382 289.179 434.641 289.14 434.999C289.102 435.357 289.36 435.678 289.718 435.716Z" fill="white"/>
<path opacity="0.3" d="M209.7 418.359C210.177 418.411 210.606 418.066 210.657 417.589C210.709 417.111 210.364 416.683 209.887 416.632C209.409 416.58 208.981 416.925 208.93 417.402C208.878 417.879 209.223 418.308 209.7 418.359Z" fill="white"/>
<path opacity="0.3" d="M177.285 390.847C177.762 390.898 178.19 390.553 178.242 390.076C178.293 389.599 177.948 389.17 177.471 389.119C176.994 389.068 176.565 389.413 176.514 389.89C176.463 390.367 176.808 390.795 177.285 390.847Z" fill="white"/>
<path opacity="0.3" d="M240.606 382.821C241.083 382.872 241.511 382.527 241.563 382.05C241.614 381.573 241.269 381.145 240.792 381.093C240.315 381.042 239.887 381.387 239.835 381.864C239.784 382.341 240.129 382.769 240.606 382.821Z" fill="white"/>
<path opacity="0.11" d="M229.877 372.93C230.354 372.982 230.783 372.637 230.834 372.16C230.885 371.683 230.54 371.254 230.063 371.203C229.586 371.152 229.158 371.497 229.106 371.974C229.055 372.451 229.4 372.879 229.877 372.93Z" fill="white"/>
<path opacity="0.3" d="M223.449 400.189C223.927 400.24 224.355 399.895 224.406 399.418C224.458 398.941 224.113 398.513 223.636 398.461C223.159 398.41 222.73 398.755 222.679 399.232C222.627 399.709 222.972 400.137 223.449 400.189Z" fill="white"/>
<path d="M250.474 402.663C250.832 402.701 251.153 402.442 251.192 402.085C251.23 401.727 250.971 401.406 250.614 401.367C250.256 401.329 249.935 401.587 249.896 401.945C249.858 402.303 250.116 402.624 250.474 402.663Z" fill="white"/>
</g>
</g>
<path d="M88.0714 398.179H91.6071V401.714H88.0714V398.179ZM91.6071 398.179H95.1429V401.714H91.6071V398.179ZM91.6071 394.643H95.1429V398.179H91.6071V394.643ZM95.1429 398.179H98.6786V401.714H95.1429V398.179ZM95.1429 401.714H98.6786V405.25H95.1429V401.714ZM98.6786 401.714H102.214V405.25H98.6786V401.714ZM91.6071 401.714H95.1429V405.25H91.6071V401.714ZM88.0714 401.714H91.6071V405.25H88.0714V401.714ZM84.5357 401.714H88.0714V405.25H84.5357V401.714ZM84.5357 405.25H88.0714V408.786H84.5357V405.25ZM81 405.25H84.5357V408.786H81V405.25ZM88.0714 405.25H91.6071V408.786H88.0714V405.25ZM84.5357 408.786H88.0714V412.321H84.5357V408.786ZM84.5357 412.321H88.0714V415.857H84.5357V412.321ZM84.5357 415.857H88.0714V419.393H84.5357V415.857ZM88.0714 415.857H91.6071V419.393H88.0714V415.857ZM91.6071 415.857H95.1429V419.393H91.6071V415.857ZM95.1429 415.857H98.6786V419.393H95.1429V415.857ZM98.6786 415.857H102.214V419.393H98.6786V415.857ZM102.214 415.857H105.75V419.393H102.214V415.857ZM102.214 412.321H105.75V415.857H102.214V412.321ZM102.214 408.786H105.75V412.321H102.214V408.786ZM102.214 405.25H105.75V408.786H102.214V405.25ZM98.6786 405.25H102.214V408.786H98.6786V405.25ZM95.1429 405.25H98.6786V408.786H95.1429V405.25ZM98.6786 408.786H102.214V412.321H98.6786V408.786ZM98.6786 412.321H102.214V415.857H98.6786V412.321ZM98.6786 419.393H102.214V422.929H98.6786V419.393ZM102.214 419.393H105.75V422.929H102.214V419.393ZM102.214 422.929H105.75V426.464H102.214V422.929ZM102.214 426.464H105.75V430H102.214V426.464ZM98.6786 426.464H102.214V430H98.6786V426.464ZM98.6786 422.929H102.214V426.464H98.6786V422.929ZM95.1429 419.393H98.6786V422.929H95.1429V419.393ZM91.6071 419.393H95.1429V422.929H91.6071V419.393ZM88.0714 419.393H91.6071V422.929H88.0714V419.393ZM84.5357 419.393H88.0714V422.929H84.5357V419.393ZM84.5357 422.929H88.0714V426.464H84.5357V422.929ZM84.5357 426.464H88.0714V430H84.5357V426.464ZM81 426.464H84.5357V430H81V426.464ZM81 422.929H84.5357V426.464H81V422.929ZM81 419.393H84.5357V422.929H81V419.393ZM81 415.857H84.5357V419.393H81V415.857ZM81 412.321H84.5357V415.857H81V412.321ZM81 408.786H84.5357V412.321H81V408.786ZM112.831 394.643H116.366V398.179H112.831V394.643ZM109.295 394.643H112.831V398.179H109.295V394.643ZM109.295 398.179H112.831V401.714H109.295V398.179ZM109.295 401.714H112.831V405.25H109.295V401.714ZM109.295 405.25H112.831V408.786H109.295V405.25ZM109.295 408.786H112.831V412.321H109.295V408.786ZM109.295 412.321H112.831V415.857H109.295V412.321ZM109.295 415.857H112.831V419.393H109.295V415.857ZM109.295 419.393H112.831V422.929H109.295V419.393ZM109.295 422.929H112.831V426.464H109.295V422.929ZM109.295 426.464H112.831V430H109.295V426.464ZM112.831 426.464H116.366V430H112.831V426.464ZM112.831 422.929H116.366V426.464H112.831V422.929ZM112.831 419.393H116.366V422.929H112.831V419.393ZM112.831 415.857H116.366V419.393H112.831V415.857ZM112.831 412.321H116.366V415.857H112.831V412.321ZM112.831 408.786H116.366V412.321H112.831V408.786ZM112.831 405.25H116.366V408.786H112.831V405.25ZM112.831 401.714H116.366V405.25H112.831V401.714ZM112.831 398.179H116.366V401.714H112.831V398.179ZM116.366 412.321H119.902V415.857H116.366V412.321ZM119.902 412.321H123.438V415.857H119.902V412.321ZM119.902 408.786H123.438V412.321H119.902V408.786ZM116.366 408.786H119.902V412.321H116.366V408.786ZM119.902 405.25H123.438V408.786H119.902V405.25ZM123.438 405.25H126.973V408.786H123.438V405.25ZM123.438 401.714H126.973V405.25H123.438V401.714ZM123.438 398.179H126.973V401.714H123.438V398.179ZM123.438 394.643H126.973V398.179H123.438V394.643ZM126.973 394.643H130.509V398.179H126.973V394.643ZM126.973 398.179H130.509V401.714H126.973V398.179ZM126.973 401.714H130.509V405.25H126.973V401.714ZM119.902 415.857H123.438V419.393H119.902V415.857ZM123.438 415.857H126.973V419.393H123.438V415.857ZM123.438 419.393H126.973V422.929H123.438V419.393ZM123.438 422.929H126.973V426.464H123.438V422.929ZM123.438 426.464H126.973V430H123.438V426.464ZM126.973 426.464H130.509V430H126.973V426.464ZM126.973 422.929H130.509V426.464H126.973V422.929ZM126.973 419.393H130.509V422.929H126.973V419.393ZM126.973 415.857H130.509V419.393H126.973V415.857ZM123.438 412.321H126.973V415.857H123.438V412.321ZM137.581 412.321H141.116V415.857H137.581V412.321ZM141.116 412.321H144.652V415.857H141.116V412.321ZM144.652 412.321H148.188V415.857H144.652V412.321ZM148.188 412.321H151.723V415.857H148.188V412.321ZM141.116 415.857H144.652V419.393H141.116V415.857ZM137.581 415.857H141.116V419.393H137.581V415.857ZM144.652 415.857H148.188V419.393H144.652V415.857ZM148.188 415.857H151.723V419.393H148.188V415.857ZM151.723 419.393H155.259V422.929H151.723V419.393ZM155.259 415.857H158.795V419.393H155.259V415.857ZM151.723 415.857H155.259V419.393H151.723V415.857ZM155.259 419.393H158.795V422.929H155.259V419.393ZM151.723 422.929H155.259V426.464H151.723V422.929ZM155.259 422.929H158.795V426.464H155.259V422.929ZM155.259 426.464H158.795V430H155.259V426.464ZM151.723 426.464H155.259V430H151.723V426.464ZM137.581 426.464H141.116V430H137.581V426.464ZM134.045 426.464H137.581V430H134.045V426.464ZM134.045 422.929H137.581V426.464H134.045V422.929ZM137.581 422.929H141.116V426.464H137.581V422.929ZM137.581 419.393H141.116V422.929H137.581V419.393ZM134.045 419.393H137.581V422.929H134.045V419.393ZM134.045 415.857H137.581V419.393H134.045V415.857ZM134.045 412.321H137.581V415.857H134.045V412.321ZM134.045 408.786H137.581V412.321H134.045V408.786ZM137.581 408.786H141.116V412.321H137.581V408.786ZM134.045 394.643H137.581V398.179H134.045V394.643ZM137.581 394.643H141.116V398.179H137.581V394.643ZM141.116 394.643H144.652V398.179H141.116V394.643ZM144.652 394.643H148.188V398.179H144.652V394.643ZM148.188 394.643H151.723V398.179H148.188V394.643ZM151.723 394.643H155.259V398.179H151.723V394.643ZM151.723 398.179H155.259V401.714H151.723V398.179ZM148.188 398.179H151.723V401.714H148.188V398.179ZM144.652 398.179H148.188V401.714H144.652V398.179ZM141.116 398.179H144.652V401.714H141.116V398.179ZM137.581 398.179H141.116V401.714H137.581V398.179ZM134.045 398.179H137.581V401.714H134.045V398.179ZM134.045 401.714H137.581V405.25H134.045V401.714ZM134.045 405.25H137.581V408.786H134.045V405.25ZM137.581 405.25H141.116V408.786H137.581V405.25ZM137.581 401.714H141.116V405.25H137.581V401.714ZM151.723 401.714H155.259V405.25H151.723V401.714ZM155.259 401.714H158.795V405.25H155.259V401.714ZM155.259 398.179H158.795V401.714H155.259V398.179ZM155.259 405.25H158.795V408.786H155.259V405.25ZM151.723 405.25H155.259V408.786H151.723V405.25ZM151.723 408.786H155.259V412.321H151.723V408.786ZM155.259 408.786H158.795V412.321H155.259V408.786ZM151.723 412.321H155.259V415.857H151.723V412.321ZM169.411 394.643H172.947V398.179H169.411V394.643ZM165.876 394.643H169.411V398.179H165.876V394.643ZM165.876 398.179H169.411V401.714H165.876V398.179ZM169.411 398.179H172.947V401.714H169.411V398.179ZM172.947 398.179H176.483V401.714H172.947V398.179ZM172.947 394.643H176.483V398.179H172.947V394.643ZM176.483 394.643H180.018V398.179H176.483V394.643ZM180.018 394.643H183.554V398.179H180.018V394.643ZM180.018 398.179H183.554V401.714H180.018V398.179ZM176.483 398.179H180.018V401.714H176.483V398.179ZM176.483 401.714H180.018V405.25H176.483V401.714ZM180.018 401.714H183.554V405.25H180.018V401.714ZM183.554 398.179H187.09V401.714H183.554V398.179ZM183.554 401.714H187.09V405.25H183.554V401.714ZM183.554 405.25H187.09V408.786H183.554V405.25ZM183.554 408.786H187.09V412.321H183.554V408.786ZM183.554 412.321H187.09V415.857H183.554V412.321ZM183.554 415.857H187.09V419.393H183.554V415.857ZM183.554 419.393H187.09V422.929H183.554V419.393ZM183.554 422.929H187.09V426.464H183.554V422.929ZM180.018 422.929H183.554V426.464H180.018V422.929ZM180.018 419.393H183.554V422.929H180.018V419.393ZM180.018 415.857H183.554V419.393H180.018V415.857ZM180.018 412.321H183.554V415.857H180.018V412.321ZM180.018 408.786H183.554V412.321H180.018V408.786ZM180.018 405.25H183.554V408.786H180.018V405.25ZM176.483 419.393H180.018V422.929H176.483V419.393ZM176.483 422.929H180.018V426.464H176.483V422.929ZM180.018 426.464H183.554V430H180.018V426.464ZM176.483 426.464H180.018V430H176.483V426.464ZM172.947 426.464H176.483V430H172.947V426.464ZM172.947 422.929H176.483V426.464H172.947V422.929ZM169.411 426.464H172.947V430H169.411V426.464ZM165.876 426.464H169.411V430H165.876V426.464ZM165.876 422.929H169.411V426.464H165.876V422.929ZM169.411 422.929H172.947V426.464H169.411V422.929ZM169.411 419.393H172.947V422.929H169.411V419.393ZM165.876 419.393H169.411V422.929H165.876V419.393ZM162.34 422.929H165.876V426.464H162.34V422.929ZM162.34 419.393H165.876V422.929H162.34V419.393ZM162.34 415.857H165.876V419.393H162.34V415.857ZM162.34 412.321H165.876V415.857H162.34V412.321ZM162.34 408.786H165.876V412.321H162.34V408.786ZM162.34 405.25H165.876V408.786H162.34V405.25ZM162.34 401.714H165.876V405.25H162.34V401.714ZM165.876 401.714H169.411V405.25H165.876V401.714ZM162.34 398.179H165.876V401.714H162.34V398.179ZM169.411 401.714H172.947V405.25H169.411V401.714ZM165.876 405.25H169.411V408.786H165.876V405.25ZM165.876 408.786H169.411V412.321H165.876V408.786ZM165.876 412.321H169.411V415.857H165.876V412.321ZM165.876 415.857H169.411V419.393H165.876V415.857ZM190.635 394.643H194.17V398.179H190.635V394.643ZM194.17 394.643H197.706V398.179H194.17V394.643ZM197.706 394.643H201.242V398.179H197.706V394.643ZM201.242 394.643H204.778V398.179H201.242V394.643ZM204.778 394.643H208.313V398.179H204.778V394.643ZM208.313 394.643H211.849V398.179H208.313V394.643ZM208.313 398.179H211.849V401.714H208.313V398.179ZM204.778 398.179H208.313V401.714H204.778V398.179ZM201.242 398.179H204.778V401.714H201.242V398.179ZM197.706 398.179H201.242V401.714H197.706V398.179ZM194.17 398.179H197.706V401.714H194.17V398.179ZM190.635 398.179H194.17V401.714H190.635V398.179ZM211.849 398.179H215.385V401.714H211.849V398.179ZM208.313 401.714H211.849V405.25H208.313V401.714ZM211.849 401.714H215.385V405.25H211.849V401.714ZM211.849 405.25H215.385V408.786H211.849V405.25ZM211.849 408.786H215.385V412.321H211.849V408.786ZM208.313 408.786H211.849V412.321H208.313V408.786ZM208.313 405.25H211.849V408.786H208.313V405.25ZM208.313 412.321H211.849V415.857H208.313V412.321ZM208.313 415.857H211.849V419.393H208.313V415.857ZM204.778 415.857H208.313V419.393H204.778V415.857ZM204.778 412.321H208.313V415.857H204.778V412.321ZM201.242 412.321H204.778V415.857H201.242V412.321ZM201.242 415.857H204.778V419.393H201.242V415.857ZM197.706 415.857H201.242V419.393H197.706V415.857ZM197.706 412.321H201.242V415.857H197.706V412.321ZM194.17 412.321H197.706V415.857H194.17V412.321ZM190.635 412.321H194.17V415.857H190.635V412.321ZM190.635 415.857H194.17V419.393H190.635V415.857ZM194.17 415.857H197.706V419.393H194.17V415.857ZM190.635 401.714H194.17V405.25H190.635V401.714ZM194.17 401.714H197.706V405.25H194.17V401.714ZM194.17 405.25H197.706V408.786H194.17V405.25ZM194.17 408.786H197.706V412.321H194.17V408.786ZM190.635 405.25H194.17V408.786H190.635V405.25ZM190.635 408.786H194.17V412.321H190.635V408.786ZM190.635 419.393H194.17V422.929H190.635V419.393ZM194.17 419.393H197.706V422.929H194.17V419.393ZM194.17 422.929H197.706V426.464H194.17V422.929ZM194.17 426.464H197.706V430H194.17V426.464ZM190.635 426.464H194.17V430H190.635V426.464ZM190.635 422.929H194.17V426.464H190.635V422.929ZM211.849 412.321H215.385V415.857H211.849V412.321ZM226.001 394.643H229.537V398.179H226.001V394.643ZM222.465 394.643H226.001V398.179H222.465V394.643ZM222.465 398.179H226.001V401.714H222.465V398.179ZM226.001 398.179H229.537V401.714H226.001V398.179ZM229.537 398.179H233.073V401.714H229.537V398.179ZM229.537 394.643H233.073V398.179H229.537V394.643ZM233.073 394.643H236.608V398.179H233.073V394.643ZM236.608 394.643H240.144V398.179H236.608V394.643ZM236.608 398.179H240.144V401.714H236.608V398.179ZM233.073 398.179H236.608V401.714H233.073V398.179ZM233.073 401.714H236.608V405.25H233.073V401.714ZM236.608 401.714H240.144V405.25H236.608V401.714ZM240.144 398.179H243.68V401.714H240.144V398.179ZM240.144 401.714H243.68V405.25H240.144V401.714ZM240.144 405.25H243.68V408.786H240.144V405.25ZM240.144 408.786H243.68V412.321H240.144V408.786ZM240.144 412.321H243.68V415.857H240.144V412.321ZM240.144 415.857H243.68V419.393H240.144V415.857ZM240.144 419.393H243.68V422.929H240.144V419.393ZM240.144 422.929H243.68V426.464H240.144V422.929ZM236.608 422.929H240.144V426.464H236.608V422.929ZM236.608 419.393H240.144V422.929H236.608V419.393ZM236.608 415.857H240.144V419.393H236.608V415.857ZM236.608 412.321H240.144V415.857H236.608V412.321ZM236.608 408.786H240.144V412.321H236.608V408.786ZM236.608 405.25H240.144V408.786H236.608V405.25ZM233.073 419.393H236.608V422.929H233.073V419.393ZM233.073 422.929H236.608V426.464H233.073V422.929ZM236.608 426.464H240.144V430H236.608V426.464ZM233.073 426.464H236.608V430H233.073V426.464ZM229.537 426.464H233.073V430H229.537V426.464ZM229.537 422.929H233.073V426.464H229.537V422.929ZM226.001 426.464H229.537V430H226.001V426.464ZM222.465 426.464H226.001V430H222.465V426.464ZM222.465 422.929H226.001V426.464H222.465V422.929ZM226.001 422.929H229.537V426.464H226.001V422.929ZM226.001 419.393H229.537V422.929H226.001V419.393ZM222.465 419.393H226.001V422.929H222.465V419.393ZM218.93 422.929H222.465V426.464H218.93V422.929ZM218.93 419.393H222.465V422.929H218.93V419.393ZM218.93 415.857H222.465V419.393H218.93V415.857ZM218.93 412.321H222.465V415.857H218.93V412.321ZM218.93 408.786H222.465V412.321H218.93V408.786ZM218.93 405.25H222.465V408.786H218.93V405.25ZM218.93 401.714H222.465V405.25H218.93V401.714ZM222.465 401.714H226.001V405.25H222.465V401.714ZM218.93 398.179H222.465V401.714H218.93V398.179ZM226.001 401.714H229.537V405.25H226.001V401.714ZM222.465 405.25H226.001V408.786H222.465V405.25ZM222.465 408.786H226.001V412.321H222.465V408.786ZM222.465 412.321H226.001V415.857H222.465V412.321ZM222.465 415.857H226.001V419.393H222.465V415.857ZM247.225 394.643H250.76V398.179H247.225V394.643ZM250.76 394.643H254.296V398.179H250.76V394.643ZM250.76 398.179H254.296V401.714H250.76V398.179ZM250.76 401.714H254.296V405.25H250.76V401.714ZM250.76 405.25H254.296V408.786H250.76V405.25ZM247.225 405.25H250.76V408.786H247.225V405.25ZM247.225 401.714H250.76V405.25H247.225V401.714ZM247.225 398.179H250.76V401.714H247.225V398.179ZM247.225 408.786H250.76V412.321H247.225V408.786ZM247.225 412.321H250.76V415.857H247.225V412.321ZM247.225 415.857H250.76V419.393H247.225V415.857ZM250.76 412.321H254.296V415.857H250.76V412.321ZM250.76 408.786H254.296V412.321H250.76V408.786ZM250.76 415.857H254.296V419.393H250.76V415.857ZM250.76 419.393H254.296V422.929H250.76V419.393ZM247.225 422.929H250.76V426.464H247.225V422.929ZM247.225 419.393H250.76V422.929H247.225V419.393ZM247.225 426.464H250.76V430H247.225V426.464ZM250.76 426.464H254.296V430H250.76V426.464ZM250.76 422.929H254.296V426.464H250.76V422.929ZM254.296 426.464H257.832V430H254.296V426.464ZM257.832 426.464H261.367V430H257.832V426.464ZM261.367 426.464H264.903V430H261.367V426.464ZM261.367 422.929H264.903V426.464H261.367V422.929ZM257.832 422.929H261.367V426.464H257.832V422.929ZM254.296 422.929H257.832V426.464H254.296V422.929ZM268.43 426.464H271.965V430H268.43V426.464ZM271.965 426.464H275.501V430H271.965V426.464ZM271.965 422.929H275.501V426.464H271.965V422.929ZM271.965 419.393H275.501V422.929H271.965V419.393ZM271.965 415.857H275.501V419.393H271.965V415.857ZM271.965 412.321H275.501V415.857H271.965V412.321ZM271.965 408.786H275.501V412.321H271.965V408.786ZM268.43 408.786H271.965V412.321H268.43V408.786ZM268.43 412.321H271.965V415.857H268.43V412.321ZM268.43 415.857H271.965V419.393H268.43V415.857ZM268.43 419.393H271.965V422.929H268.43V419.393ZM268.43 422.929H271.965V426.464H268.43V422.929ZM268.43 405.25H271.965V408.786H268.43V405.25ZM271.965 405.25H275.501V408.786H271.965V405.25ZM271.965 401.714H275.501V405.25H271.965V401.714ZM271.965 398.179H275.501V401.714H271.965V398.179ZM271.965 394.643H275.501V398.179H271.965V394.643ZM268.43 394.643H271.965V398.179H268.43V394.643ZM268.43 398.179H271.965V401.714H268.43V398.179ZM268.43 401.714H271.965V405.25H268.43V401.714ZM300.279 401.714H303.814V405.25H300.279V401.714ZM296.743 401.714H300.279V405.25H296.743V401.714ZM296.743 398.179H300.279V401.714H296.743V398.179ZM300.279 398.179H303.814V401.714H300.279V398.179ZM296.743 394.643H300.279V398.179H296.743V394.643ZM293.207 394.643H296.743V398.179H293.207V394.643ZM293.207 398.179H296.743V401.714H293.207V398.179ZM289.672 398.179H293.207V401.714H289.672V398.179ZM286.136 398.179H289.672V401.714H286.136V398.179ZM286.136 394.643H289.672V398.179H286.136V394.643ZM282.6 394.643H286.136V398.179H282.6V394.643ZM289.672 394.643H293.207V398.179H289.672V394.643ZM282.6 398.179H286.136V401.714H282.6V398.179ZM279.064 398.179H282.6V401.714H279.064V398.179ZM279.064 401.714H282.6V405.25H279.064V401.714ZM282.6 401.714H286.136V405.25H282.6V401.714ZM282.6 405.25H286.136V408.786H282.6V405.25ZM282.6 408.786H286.136V412.321H282.6V408.786ZM279.064 408.786H282.6V412.321H279.064V408.786ZM279.064 405.25H282.6V408.786H279.064V405.25ZM282.6 412.321H286.136V415.857H282.6V412.321ZM286.136 412.321H289.672V415.857H286.136V412.321ZM286.136 408.786H289.672V412.321H286.136V408.786ZM289.672 408.786H293.207V412.321H289.672V408.786ZM293.207 408.786H296.743V412.321H293.207V408.786ZM296.743 408.786H300.279V412.321H296.743V408.786ZM296.743 412.321H300.279V415.857H296.743V412.321ZM293.207 412.321H296.743V415.857H293.207V412.321ZM289.672 412.321H293.207V415.857H289.672V412.321ZM300.279 412.321H303.814V415.857H300.279V412.321ZM300.279 415.857H303.814V419.393H300.279V415.857ZM296.743 415.857H300.279V419.393H296.743V415.857ZM293.207 422.929H296.743V426.464H293.207V422.929ZM296.743 422.929H300.279V426.464H296.743V422.929ZM296.743 419.393H300.279V422.929H296.743V419.393ZM300.279 419.393H303.814V422.929H300.279V419.393ZM300.279 422.929H303.814V426.464H300.279V422.929ZM296.743 426.464H300.279V430H296.743V426.464ZM293.207 426.464H296.743V430H293.207V426.464ZM289.672 426.464H293.207V430H289.672V426.464ZM286.136 426.464H289.672V430H286.136V426.464ZM282.6 426.464H286.136V430H282.6V426.464ZM282.6 422.929H286.136V426.464H282.6V422.929ZM286.136 422.929H289.672V426.464H286.136V422.929ZM289.672 422.929H293.207V426.464H289.672V422.929ZM279.064 422.929H282.6V426.464H279.064V422.929ZM279.064 419.393H282.6V422.929H279.064V419.393ZM282.6 419.393H286.136V422.929H282.6V419.393Z" fill="#FEFEFE"/>
<path d="M88.9766 451H91.3828V462.344C91.3828 463.37 91.1797 464.247 90.7734 464.977C90.3724 465.706 89.8073 466.263 89.0781 466.648C88.349 467.029 87.4948 467.219 86.5156 467.219C85.6146 467.219 84.8047 467.055 84.0859 466.727C83.3724 466.398 82.8073 465.922 82.3906 465.297C81.9792 464.667 81.7734 463.901 81.7734 463H84.1719C84.1719 463.443 84.2734 463.826 84.4766 464.148C84.6849 464.471 84.9688 464.724 85.3281 464.906C85.6927 465.083 86.1094 465.172 86.5781 465.172C87.0885 465.172 87.5208 465.065 87.875 464.852C88.2344 464.633 88.5078 464.312 88.6953 463.891C88.8828 463.469 88.9766 462.953 88.9766 462.344V451ZM99.7637 467.242C98.6387 467.242 97.6569 466.984 96.8184 466.469C95.9798 465.953 95.3288 465.232 94.8652 464.305C94.4017 463.378 94.1699 462.294 94.1699 461.055C94.1699 459.81 94.4017 458.721 94.8652 457.789C95.3288 456.857 95.9798 456.133 96.8184 455.617C97.6569 455.102 98.6387 454.844 99.7637 454.844C100.889 454.844 101.87 455.102 102.709 455.617C103.548 456.133 104.199 456.857 104.662 457.789C105.126 458.721 105.357 459.81 105.357 461.055C105.357 462.294 105.126 463.378 104.662 464.305C104.199 465.232 103.548 465.953 102.709 466.469C101.87 466.984 100.889 467.242 99.7637 467.242ZM99.7715 465.281C100.501 465.281 101.105 465.089 101.584 464.703C102.063 464.318 102.417 463.805 102.646 463.164C102.881 462.523 102.998 461.818 102.998 461.047C102.998 460.281 102.881 459.578 102.646 458.937C102.417 458.292 102.063 457.773 101.584 457.383C101.105 456.992 100.501 456.797 99.7715 456.797C99.0371 456.797 98.4277 456.992 97.9434 457.383C97.4642 457.773 97.1074 458.292 96.873 458.937C96.6439 459.578 96.5293 460.281 96.5293 461.047C96.5293 461.818 96.6439 462.523 96.873 463.164C97.1074 463.805 97.4642 464.318 97.9434 464.703C98.4277 465.089 99.0371 465.281 99.7715 465.281ZM107.965 467V455H110.301V467H107.965ZM109.145 453.148C108.738 453.148 108.389 453.013 108.098 452.742C107.811 452.466 107.668 452.138 107.668 451.758C107.668 451.372 107.811 451.044 108.098 450.773C108.389 450.497 108.738 450.359 109.145 450.359C109.551 450.359 109.897 450.497 110.184 450.773C110.475 451.044 110.621 451.372 110.621 451.758C110.621 452.138 110.475 452.466 110.184 452.742C109.897 453.013 109.551 453.148 109.145 453.148ZM115.779 459.875V467H113.443V455H115.686V456.953H115.834C116.11 456.318 116.542 455.807 117.131 455.422C117.725 455.036 118.472 454.844 119.373 454.844C120.191 454.844 120.907 455.016 121.521 455.359C122.136 455.698 122.613 456.203 122.951 456.875C123.29 457.547 123.459 458.378 123.459 459.367V467H121.123V459.648C121.123 458.779 120.896 458.099 120.443 457.609C119.99 457.115 119.368 456.867 118.576 456.867C118.035 456.867 117.553 456.984 117.131 457.219C116.714 457.453 116.383 457.797 116.139 458.25C115.899 458.698 115.779 459.24 115.779 459.875ZM138.016 455V456.875H131.461V455H138.016ZM133.219 452.125H135.555V463.477C135.555 463.93 135.622 464.271 135.758 464.5C135.893 464.724 136.068 464.878 136.281 464.961C136.5 465.039 136.737 465.078 136.992 465.078C137.18 465.078 137.344 465.065 137.484 465.039C137.625 465.013 137.734 464.992 137.813 464.977L138.234 466.906C138.099 466.958 137.906 467.01 137.656 467.063C137.406 467.12 137.094 467.151 136.719 467.156C136.104 467.167 135.531 467.057 135 466.828C134.469 466.599 134.039 466.245 133.711 465.766C133.383 465.286 133.219 464.685 133.219 463.961V452.125ZM143.193 459.875V467H140.857V451H143.162V456.953H143.311C143.592 456.307 144.021 455.794 144.6 455.414C145.178 455.034 145.933 454.844 146.865 454.844C147.688 454.844 148.407 455.013 149.021 455.352C149.641 455.69 150.12 456.195 150.459 456.867C150.803 457.534 150.975 458.367 150.975 459.367V467H148.639V459.648C148.639 458.768 148.412 458.086 147.959 457.602C147.506 457.112 146.876 456.867 146.068 456.867C145.516 456.867 145.021 456.984 144.584 457.219C144.152 457.453 143.811 457.797 143.561 458.25C143.316 458.698 143.193 459.24 143.193 459.875ZM159.264 467.242C158.081 467.242 157.063 466.99 156.209 466.484C155.36 465.974 154.704 465.258 154.24 464.336C153.782 463.409 153.553 462.323 153.553 461.078C153.553 459.849 153.782 458.766 154.24 457.828C154.704 456.891 155.35 456.159 156.178 455.633C157.011 455.107 157.985 454.844 159.1 454.844C159.777 454.844 160.433 454.956 161.068 455.18C161.704 455.404 162.274 455.755 162.779 456.234C163.285 456.714 163.683 457.336 163.975 458.102C164.266 458.862 164.412 459.786 164.412 460.875V461.703H154.873V459.953H162.123C162.123 459.339 161.998 458.794 161.748 458.32C161.498 457.841 161.146 457.464 160.693 457.187C160.245 456.911 159.719 456.773 159.115 456.773C158.459 456.773 157.886 456.935 157.396 457.258C156.912 457.576 156.537 457.992 156.271 458.508C156.011 459.018 155.881 459.573 155.881 460.172V461.539C155.881 462.341 156.021 463.023 156.303 463.586C156.589 464.148 156.988 464.578 157.498 464.875C158.008 465.167 158.605 465.312 159.287 465.312C159.73 465.312 160.133 465.25 160.498 465.125C160.863 464.995 161.178 464.802 161.443 464.547C161.709 464.292 161.912 463.977 162.053 463.602L164.264 464C164.087 464.651 163.769 465.221 163.311 465.711C162.857 466.195 162.287 466.573 161.6 466.844C160.917 467.109 160.139 467.242 159.264 467.242ZM186.303 456.203H183.865C183.771 455.682 183.597 455.224 183.342 454.828C183.087 454.432 182.774 454.096 182.404 453.82C182.035 453.544 181.62 453.336 181.162 453.195C180.709 453.055 180.227 452.984 179.717 452.984C178.795 452.984 177.969 453.216 177.24 453.68C176.516 454.143 175.943 454.823 175.521 455.719C175.105 456.615 174.896 457.708 174.896 459C174.896 460.302 175.105 461.401 175.521 462.297C175.943 463.193 176.519 463.87 177.248 464.328C177.977 464.786 178.798 465.016 179.709 465.016C180.214 465.016 180.693 464.948 181.146 464.812C181.605 464.672 182.019 464.466 182.389 464.195C182.758 463.924 183.071 463.594 183.326 463.203C183.587 462.807 183.766 462.354 183.865 461.844L186.303 461.852C186.173 462.638 185.92 463.362 185.545 464.023C185.175 464.68 184.699 465.247 184.115 465.727C183.537 466.201 182.876 466.568 182.131 466.828C181.386 467.089 180.574 467.219 179.693 467.219C178.308 467.219 177.074 466.891 175.99 466.234C174.907 465.573 174.053 464.628 173.428 463.398C172.808 462.169 172.498 460.703 172.498 459C172.498 457.292 172.811 455.826 173.436 454.602C174.061 453.372 174.915 452.43 175.998 451.773C177.081 451.112 178.313 450.781 179.693 450.781C180.542 450.781 181.334 450.904 182.068 451.148C182.808 451.388 183.472 451.742 184.061 452.211C184.649 452.674 185.136 453.242 185.521 453.914C185.907 454.581 186.167 455.344 186.303 456.203ZM194.059 467.242C192.934 467.242 191.952 466.984 191.113 466.469C190.275 465.953 189.624 465.232 189.16 464.305C188.697 463.378 188.465 462.294 188.465 461.055C188.465 459.81 188.697 458.721 189.16 457.789C189.624 456.857 190.275 456.133 191.113 455.617C191.952 455.102 192.934 454.844 194.059 454.844C195.184 454.844 196.165 455.102 197.004 455.617C197.842 456.133 198.493 456.857 198.957 457.789C199.421 458.721 199.652 459.81 199.652 461.055C199.652 462.294 199.421 463.378 198.957 464.305C198.493 465.232 197.842 465.953 197.004 466.469C196.165 466.984 195.184 467.242 194.059 467.242ZM194.066 465.281C194.796 465.281 195.4 465.089 195.879 464.703C196.358 464.318 196.712 463.805 196.941 463.164C197.176 462.523 197.293 461.818 197.293 461.047C197.293 460.281 197.176 459.578 196.941 458.937C196.712 458.292 196.358 457.773 195.879 457.383C195.4 456.992 194.796 456.797 194.066 456.797C193.332 456.797 192.723 456.992 192.238 457.383C191.759 457.773 191.402 458.292 191.168 458.937C190.939 459.578 190.824 460.281 190.824 461.047C190.824 461.818 190.939 462.523 191.168 463.164C191.402 463.805 191.759 464.318 192.238 464.703C192.723 465.089 193.332 465.281 194.066 465.281ZM204.596 459.875V467H202.26V455H204.502V456.953H204.65C204.926 456.318 205.359 455.807 205.947 455.422C206.541 455.036 207.288 454.844 208.189 454.844C209.007 454.844 209.723 455.016 210.338 455.359C210.952 455.698 211.429 456.203 211.768 456.875C212.106 457.547 212.275 458.378 212.275 459.367V467H209.939V459.648C209.939 458.779 209.713 458.099 209.26 457.609C208.807 457.115 208.184 456.867 207.393 456.867C206.851 456.867 206.369 456.984 205.947 457.219C205.531 457.453 205.2 457.797 204.955 458.25C204.715 458.698 204.596 459.24 204.596 459.875ZM225.244 455L220.893 467H218.393L214.033 455H216.541L219.58 464.234H219.705L222.736 455H225.244ZM232.203 467.242C231.021 467.242 230.003 466.99 229.148 466.484C228.299 465.974 227.643 465.258 227.18 464.336C226.721 463.409 226.492 462.323 226.492 461.078C226.492 459.849 226.721 458.766 227.18 457.828C227.643 456.891 228.289 456.159 229.117 455.633C229.951 455.107 230.924 454.844 232.039 454.844C232.716 454.844 233.372 454.956 234.008 455.18C234.643 455.404 235.214 455.755 235.719 456.234C236.224 456.714 236.622 457.336 236.914 458.102C237.206 458.862 237.352 459.786 237.352 460.875V461.703H227.813V459.953H235.063C235.063 459.339 234.938 458.794 234.688 458.32C234.438 457.841 234.086 457.464 233.633 457.187C233.185 456.911 232.659 456.773 232.055 456.773C231.398 456.773 230.826 456.935 230.336 457.258C229.852 457.576 229.477 457.992 229.211 458.508C228.951 459.018 228.82 459.573 228.82 460.172V461.539C228.82 462.341 228.961 463.023 229.242 463.586C229.529 464.148 229.927 464.578 230.438 464.875C230.948 465.167 231.544 465.312 232.227 465.312C232.669 465.312 233.073 465.25 233.438 465.125C233.802 464.995 234.117 464.802 234.383 464.547C234.648 464.292 234.852 463.977 234.992 463.602L237.203 464C237.026 464.651 236.708 465.221 236.25 465.711C235.797 466.195 235.227 466.573 234.539 466.844C233.857 467.109 233.078 467.242 232.203 467.242ZM239.943 467V455H242.201V456.906H242.326C242.545 456.26 242.93 455.753 243.482 455.383C244.04 455.008 244.67 454.82 245.373 454.82C245.519 454.82 245.691 454.826 245.889 454.836C246.092 454.846 246.251 454.859 246.365 454.875V457.109C246.271 457.083 246.105 457.055 245.865 457.023C245.626 456.987 245.386 456.969 245.146 456.969C244.594 456.969 244.102 457.086 243.67 457.32C243.243 457.549 242.904 457.87 242.654 458.281C242.404 458.687 242.279 459.151 242.279 459.672V467H239.943ZM257.379 457.93L255.262 458.305C255.173 458.034 255.033 457.776 254.84 457.531C254.652 457.286 254.397 457.086 254.074 456.93C253.751 456.773 253.348 456.695 252.863 456.695C252.202 456.695 251.65 456.844 251.207 457.141C250.764 457.432 250.543 457.81 250.543 458.273C250.543 458.674 250.691 458.997 250.988 459.242C251.285 459.487 251.764 459.687 252.426 459.844L254.332 460.281C255.436 460.536 256.259 460.93 256.801 461.461C257.342 461.992 257.613 462.682 257.613 463.531C257.613 464.25 257.405 464.891 256.988 465.453C256.577 466.01 256.001 466.448 255.262 466.766C254.527 467.083 253.676 467.242 252.707 467.242C251.363 467.242 250.267 466.956 249.418 466.383C248.569 465.805 248.048 464.984 247.855 463.922L250.113 463.578C250.254 464.167 250.543 464.612 250.98 464.914C251.418 465.211 251.988 465.359 252.691 465.359C253.457 465.359 254.069 465.201 254.527 464.883C254.986 464.56 255.215 464.167 255.215 463.703C255.215 463.328 255.074 463.013 254.793 462.758C254.517 462.503 254.092 462.31 253.52 462.18L251.488 461.734C250.368 461.479 249.54 461.073 249.004 460.516C248.473 459.958 248.207 459.253 248.207 458.398C248.207 457.69 248.405 457.07 248.801 456.539C249.197 456.008 249.743 455.594 250.441 455.297C251.139 454.995 251.939 454.844 252.84 454.844C254.137 454.844 255.158 455.125 255.902 455.687C256.647 456.245 257.139 456.992 257.379 457.93ZM263.674 467.266C262.913 467.266 262.226 467.125 261.611 466.844C260.997 466.557 260.51 466.143 260.15 465.602C259.796 465.06 259.619 464.396 259.619 463.609C259.619 462.932 259.749 462.375 260.01 461.937C260.27 461.5 260.622 461.154 261.064 460.898C261.507 460.643 262.002 460.451 262.549 460.32C263.096 460.19 263.653 460.091 264.221 460.023C264.939 459.94 265.523 459.872 265.971 459.82C266.419 459.763 266.744 459.672 266.947 459.547C267.15 459.422 267.252 459.219 267.252 458.937V458.883C267.252 458.201 267.059 457.672 266.674 457.297C266.294 456.922 265.726 456.734 264.971 456.734C264.184 456.734 263.564 456.909 263.111 457.258C262.663 457.602 262.354 457.984 262.182 458.406L259.986 457.906C260.247 457.177 260.627 456.589 261.127 456.141C261.632 455.687 262.213 455.359 262.869 455.156C263.525 454.948 264.215 454.844 264.939 454.844C265.419 454.844 265.926 454.901 266.463 455.016C267.005 455.125 267.51 455.328 267.979 455.625C268.452 455.922 268.84 456.346 269.143 456.898C269.445 457.445 269.596 458.156 269.596 459.031V467H267.314V465.359H267.221C267.07 465.661 266.843 465.958 266.541 466.25C266.239 466.542 265.851 466.784 265.377 466.977C264.903 467.169 264.335 467.266 263.674 467.266ZM264.182 465.391C264.827 465.391 265.38 465.263 265.838 465.008C266.301 464.753 266.653 464.419 266.893 464.008C267.137 463.591 267.26 463.146 267.26 462.672V461.125C267.176 461.208 267.015 461.286 266.775 461.359C266.541 461.427 266.273 461.487 265.971 461.539C265.669 461.586 265.374 461.63 265.088 461.672C264.801 461.708 264.562 461.74 264.369 461.766C263.916 461.823 263.502 461.919 263.127 462.055C262.757 462.19 262.46 462.385 262.236 462.641C262.018 462.891 261.908 463.224 261.908 463.641C261.908 464.219 262.122 464.656 262.549 464.953C262.976 465.245 263.52 465.391 264.182 465.391ZM278.309 455V456.875H271.754V455H278.309ZM273.512 452.125H275.848V463.477C275.848 463.93 275.915 464.271 276.051 464.5C276.186 464.724 276.361 464.878 276.574 464.961C276.793 465.039 277.03 465.078 277.285 465.078C277.473 465.078 277.637 465.065 277.777 465.039C277.918 465.013 278.027 464.992 278.105 464.977L278.527 466.906C278.392 466.958 278.199 467.01 277.949 467.063C277.699 467.12 277.387 467.151 277.012 467.156C276.397 467.167 275.824 467.057 275.293 466.828C274.762 466.599 274.332 466.245 274.004 465.766C273.676 465.286 273.512 464.685 273.512 463.961V452.125ZM280.893 467V455H283.229V467H280.893ZM282.072 453.148C281.666 453.148 281.317 453.013 281.025 452.742C280.739 452.466 280.596 452.138 280.596 451.758C280.596 451.372 280.739 451.044 281.025 450.773C281.317 450.497 281.666 450.359 282.072 450.359C282.479 450.359 282.825 450.497 283.111 450.773C283.403 451.044 283.549 451.372 283.549 451.758C283.549 452.138 283.403 452.466 283.111 452.742C282.825 453.013 282.479 453.148 282.072 453.148ZM291.426 467.242C290.301 467.242 289.319 466.984 288.48 466.469C287.642 465.953 286.991 465.232 286.527 464.305C286.064 463.378 285.832 462.294 285.832 461.055C285.832 459.81 286.064 458.721 286.527 457.789C286.991 456.857 287.642 456.133 288.48 455.617C289.319 455.102 290.301 454.844 291.426 454.844C292.551 454.844 293.533 455.102 294.371 455.617C295.21 456.133 295.861 456.857 296.324 457.789C296.788 458.721 297.02 459.81 297.02 461.055C297.02 462.294 296.788 463.378 296.324 464.305C295.861 465.232 295.21 465.953 294.371 466.469C293.533 466.984 292.551 467.242 291.426 467.242ZM291.434 465.281C292.163 465.281 292.767 465.089 293.246 464.703C293.725 464.318 294.079 463.805 294.309 463.164C294.543 462.523 294.66 461.818 294.66 461.047C294.66 460.281 294.543 459.578 294.309 458.937C294.079 458.292 293.725 457.773 293.246 457.383C292.767 456.992 292.163 456.797 291.434 456.797C290.699 456.797 290.09 456.992 289.605 457.383C289.126 457.773 288.77 458.292 288.535 458.937C288.306 459.578 288.191 460.281 288.191 461.047C288.191 461.818 288.306 462.523 288.535 463.164C288.77 463.805 289.126 464.318 289.605 464.703C290.09 465.089 290.699 465.281 291.434 465.281ZM301.963 459.875V467H299.627V455H301.869V456.953H302.018C302.294 456.318 302.726 455.807 303.314 455.422C303.908 455.036 304.656 454.844 305.557 454.844C306.374 454.844 307.09 455.016 307.705 455.359C308.32 455.698 308.796 456.203 309.135 456.875C309.473 457.547 309.643 458.378 309.643 459.367V467H307.307V459.648C307.307 458.779 307.08 458.099 306.627 457.609C306.174 457.115 305.551 456.867 304.76 456.867C304.218 456.867 303.736 456.984 303.314 457.219C302.898 457.453 302.567 457.797 302.322 458.25C302.083 458.698 301.963 459.24 301.963 459.875Z" fill="#FEFEFE"/>
</g>
<defs>
<radialGradient id="paint0_radial_16_4247" cx="0" cy="0" r="1" gradientUnits="userSpaceOnUse" gradientTransform="translate(241.698 407.873) rotate(26.5651) scale(610.108 488.087)">
<stop stop-color="#7877C6"/>
<stop offset="0.7" stop-opacity="0"/>
</radialGradient>
<radialGradient id="paint1_radial_16_4247" cx="0" cy="0" r="1" gradientUnits="userSpaceOnUse" gradientTransform="translate(392.672 283.246) rotate(39.9732) scale(420.663 414.204)">
<stop/>
<stop offset="1" stop-opacity="0"/>
</radialGradient>
<clipPath id="clip0_16_4247">
<rect width="393" height="852" fill="white"/>
</clipPath>
<clipPath id="clip1_16_4247">
<rect width="644.747" height="540.493" fill="white" transform="translate(70.2982 13) rotate(39.1308)"/>
</clipPath>
</defs>
</svg>
