<svg width="29" height="28" viewBox="0 0 29 28" fill="none" xmlns="http://www.w3.org/2000/svg">
<g clip-path="url(#clip0_1385_705)">
<path d="M14.7869 24.4734C20.503 24.4734 25.1369 19.8396 25.1369 14.1234C25.1369 8.40729 20.503 3.77344 14.7869 3.77344C9.07071 3.77344 4.43686 8.40729 4.43686 14.1234C4.43686 19.8396 9.07071 24.4734 14.7869 24.4734Z" stroke="#FEFEFE" stroke-width="1.725" stroke-linecap="round" stroke-linejoin="round"/>
<path d="M14.786 17.5732C17.1677 17.5732 19.0985 15.6425 19.0985 13.2607C19.0985 10.879 17.1677 8.94824 14.786 8.94824C12.4043 8.94824 10.4735 10.879 10.4735 13.2607C10.4735 15.6425 12.4043 17.5732 14.786 17.5732Z" stroke="#FEFEFE" stroke-width="1.725" stroke-linecap="round" stroke-linejoin="round"/>
<path d="M7.8652 21.8178C8.51414 20.5396 9.50434 19.4661 10.7261 18.7162C11.9478 17.9663 13.3533 17.5693 14.7868 17.5693C16.2203 17.5693 17.6258 17.9663 18.8475 18.7162C20.0692 19.4661 21.0594 20.5396 21.7083 21.8178" stroke="#FEFEFE" stroke-width="1.725" stroke-linecap="round" stroke-linejoin="round"/>
</g>
<defs>
<clipPath id="clip0_1385_705">
<rect width="27.6" height="27.6" fill="white" transform="translate(0.986145 0.322266)"/>
</clipPath>
</defs>
</svg>
